<svg>

   <symbol id="logo" viewBox="0 0 48 45" xmlns="http://www.w3.org/2000/svg">
      <path d="M24.4865 19.9247C26.7853 13.7591 22.0248 10.3841 18.8692 8.16595C18.2659 7.71277 17.6625 7.28941 17.1738 6.90183C16.3004 6.17346 15.6569 5.21252 15.32 4.13327C14.9831 3.05402 14.9669 1.90186 15.2732 0.813754C15.3047 0.699909 15.3039 0.579702 15.271 0.466265C15.238 0.352829 15.1742 0.250524 15.0864 0.170525C14.9986 0.0905255 14.8902 0.0359104 14.7731 0.0126413C14.6561 -0.0106278 14.5348 -0.00165465 14.4225 0.0385814C13.3598 0.454105 12.3718 1.03597 11.4962 1.76185C10.655 2.40281 9.97347 3.22564 9.50388 4.16725C9.03429 5.10886 8.78911 6.14424 8.78715 7.19401C8.19216 7.65757 7.66612 8.20154 7.22446 8.80994C6.41311 9.90451 6.00633 11.2411 6.07205 12.5963C5.1056 13.4736 4.38581 14.5836 3.98292 15.8178C3.58002 17.052 3.50778 18.3684 3.77327 19.6385C3.38879 19.8681 3.09119 20.216 2.92616 20.6289C2.76114 21.0418 2.7378 21.4969 2.85976 21.9241C2.98172 22.3514 3.24223 22.7273 3.60127 22.9941C3.96031 23.2609 4.39804 23.4039 4.84724 23.401H4.88948V26.9072C4.88948 27.263 5.0325 27.6043 5.28709 27.8559C5.54168 28.1075 5.88699 28.2488 6.24703 28.2488H7.3029L9.02247 42.9771C9.05822 43.305 9.21543 43.6082 9.46383 43.8283C9.71224 44.0485 10.0343 44.1701 10.3679 44.1697H17.5238C17.8577 44.1689 18.1798 44.0471 18.4289 43.8273C18.678 43.6075 18.8368 43.3049 18.8753 42.9771L20.5948 28.2488H21.6507C22.0108 28.2488 22.356 28.1075 22.6106 27.8559C22.8652 27.6043 23.0083 27.263 23.0083 26.9072V23.401H23.0505C23.5962 23.401 24.1195 23.1868 24.5053 22.8055C24.8912 22.4242 25.1079 21.907 25.1079 21.3677C25.1107 21.0986 25.0587 20.8316 24.955 20.5827C24.8514 20.3338 24.6982 20.108 24.5046 19.9187L24.4865 19.9247ZM8.99833 8.73838C9.86717 11.9643 13.2218 13.2344 16.2808 14.3673C16.3631 14.4173 16.4555 14.4489 16.5514 14.4596C16.6474 14.4704 16.7445 14.4601 16.836 14.4296C16.9275 14.399 17.0111 14.349 17.0808 14.2829C17.1505 14.2168 17.2046 14.1364 17.2393 14.0473C17.274 13.9583 17.2884 13.8627 17.2816 13.7675C17.2747 13.6723 17.2467 13.5798 17.1995 13.4965C17.1524 13.4132 17.0872 13.3412 17.0088 13.2856C16.9303 13.23 16.8404 13.1921 16.7454 13.1747C13.4511 11.9404 10.3438 10.7896 10.1085 7.49215C10.0534 6.58572 10.2255 5.67986 10.6097 4.85498C10.9939 4.0301 11.5782 3.31172 12.3108 2.76361C12.7697 2.38622 13.2625 2.05091 13.7829 1.76185C13.7494 2.17461 13.7494 2.58936 13.7829 3.00212C13.8528 3.94703 14.1142 4.86841 14.5516 5.71147C14.989 6.55452 15.5935 7.30203 16.3291 7.90955C16.8299 8.33291 17.4513 8.7682 18.1392 9.2333C19.726 10.3603 21.53 11.6184 22.6764 13.3238C23.288 14.1984 23.6686 15.2103 23.7835 16.2674C23.8983 17.3244 23.7438 18.3931 23.3341 19.3761H23.0807H20.6672C15.1707 19.3761 8.85353 17.8735 7.60458 13.6637C7.35682 12.7976 7.35884 11.8804 7.61044 11.0154C7.86203 10.1504 8.35319 9.37205 9.02849 8.7682L8.99833 8.73838ZM13.9458 29.0657L15.9611 31.0573L13.9458 33.0489L11.9306 31.0454L13.9458 29.0657ZM18.5676 34.2952L16.9023 35.9409L14.8871 33.9493L16.9023 31.9637L18.652 33.687L18.5676 34.2952ZM13.9458 38.8627L11.9306 36.8711L13.9458 34.8795L15.9611 36.8711L13.9458 38.8627ZM13.0227 33.9613L11.0075 35.9528L9.33017 34.2952L9.25777 33.6989L11.0075 31.9756L13.0227 33.9613ZM10.0783 36.8711L9.67409 37.2706L9.57151 36.3643L10.0783 36.8711ZM9.86717 38.9104L11.0075 37.7834L13.2218 39.9897C13.2332 40.0342 13.2473 40.0781 13.2641 40.1209H10.0059L9.86717 38.9104ZM16.8902 37.7834L18.0306 38.9104L17.8918 40.103H14.5432L16.8902 37.7834ZM18.2176 37.2706L17.8134 36.8711L18.3262 36.3643L18.2176 37.2706ZM18.821 32.0591L17.8134 31.0454L19.0925 29.7813L18.821 32.0591ZM16.8842 30.1391L14.9716 28.2548H18.7968L16.8842 30.1391ZM11.0015 30.1391L9.08883 28.2548H12.9141L11.0015 30.1391ZM17.5177 42.8757H10.3679C10.3572 42.8745 10.3472 42.8697 10.3395 42.8621C10.3319 42.8545 10.327 42.8446 10.3257 42.834L10.1568 41.4029H17.7349L17.572 42.834C17.5705 42.8456 17.5648 42.8562 17.5559 42.8639C17.547 42.8716 17.5356 42.8758 17.5238 42.8757H17.5177ZM23.0505 22.1011H20.9508C20.8596 22.0925 20.7675 22.1028 20.6805 22.1313C20.5935 22.1599 20.5135 22.2061 20.4457 22.267C20.3778 22.328 20.3236 22.4022 20.2865 22.4851C20.2494 22.5679 20.2302 22.6575 20.2302 22.7481C20.2302 22.8387 20.2494 22.9283 20.2865 23.0111C20.3236 23.094 20.3778 23.1683 20.4457 23.2292C20.5135 23.2901 20.5935 23.3363 20.6805 23.3649C20.7675 23.3935 20.8596 23.4037 20.9508 23.3951H21.699V26.9012C21.6975 26.9128 21.6918 26.9235 21.6829 26.9312C21.674 26.9389 21.6625 26.9431 21.6507 26.943H6.22289C6.21107 26.9431 6.19962 26.9389 6.19072 26.9312C6.18183 26.9235 6.17611 26.9128 6.17463 26.9012V23.3951H18.1271C18.2899 23.3796 18.441 23.3048 18.551 23.1852C18.6609 23.0655 18.7219 22.9097 18.7219 22.7481C18.7219 22.5865 18.6609 22.4307 18.551 22.3111C18.441 22.1914 18.2899 22.1166 18.1271 22.1011H4.85328C4.74979 22.1104 4.64549 22.0982 4.54704 22.0653C4.44858 22.0325 4.35811 21.9798 4.28141 21.9105C4.20471 21.8412 4.14346 21.7569 4.10155 21.663C4.05964 21.569 4.03799 21.4674 4.03799 21.3647C4.03799 21.262 4.05964 21.1605 4.10155 21.0665C4.14346 20.9725 4.20471 20.8882 4.28141 20.8189C4.35811 20.7497 4.44858 20.6969 4.54704 20.6641C4.64549 20.6313 4.74979 20.6191 4.85328 20.6283H6.22289C6.38567 20.6129 6.53678 20.538 6.64674 20.4184C6.7567 20.2988 6.81763 20.143 6.81763 19.9813C6.81763 19.8197 6.7567 19.6639 6.64674 19.5443C6.53678 19.4247 6.38567 19.3498 6.22289 19.3344H5.01618C4.84335 18.4271 4.87143 17.4936 5.09849 16.5981C5.32554 15.7025 5.74619 14.8662 6.33149 14.1467C6.75384 15.4466 7.83988 17.2235 10.555 18.6367C13.1072 19.9545 16.486 20.6283 20.5948 20.6283H23.0083C23.1118 20.6191 23.216 20.6313 23.3145 20.6641C23.413 20.6969 23.5034 20.7497 23.5801 20.8189C23.6568 20.8882 23.7181 20.9725 23.76 21.0665C23.8019 21.1605 23.8235 21.262 23.8235 21.3647C23.8235 21.4674 23.8019 21.569 23.76 21.663C23.7181 21.7569 23.6568 21.8412 23.5801 21.9105C23.5034 21.9798 23.413 22.0325 23.3145 22.0653C23.216 22.0982 23.1118 22.1104 23.0083 22.1011H23.0505Z" />
      <path d="M27.8677 39.2557L27.5947 39.6746L27.6002 39.6781L27.8677 39.2557ZM33.0669 39.5061L33.5667 39.495L33.5539 38.9163L32.9832 39.0132L33.0669 39.5061ZM33.1273 42.2266L33.2546 42.7101L33.636 42.6098L33.6272 42.2155L33.1273 42.2266ZM26.3045 42.3561L26.4167 41.8689L26.4137 41.8682L26.3045 42.3561ZM22.9363 40.8534L23.2598 40.4721L23.259 40.4715L22.9363 40.8534ZM21.7186 38.0897L22.2186 38.0922V38.0897H21.7186ZM22.1418 36.1552L21.6931 35.9345L21.6928 35.9352L22.1418 36.1552ZM24.8536 33.8406L25.031 34.3081L25.0328 34.3074L24.8536 33.8406ZM33.5419 33.6161L34.0404 33.6549L34.0733 33.2327L33.6622 33.1307L33.5419 33.6161ZM33.326 36.3884L33.2329 36.8796L33.7811 36.9835L33.8245 36.4272L33.326 36.3884ZM30.9682 35.6379C29.6573 35.6379 28.6062 35.7797 27.8651 36.1055C27.4889 36.271 27.1689 36.4941 26.9424 36.7929C26.7111 37.0981 26.5991 37.4539 26.5991 37.8393H27.5991C27.5991 37.6575 27.6483 37.5171 27.7394 37.397C27.8353 37.2704 27.999 37.1391 28.2676 37.0209C28.8163 36.7797 29.6997 36.6379 30.9682 36.6379V35.6379ZM26.5991 37.8393C26.5991 38.6191 26.9411 39.2486 27.5947 39.6746L28.1407 38.8368C27.7695 38.5949 27.5991 38.2801 27.5991 37.8393H26.5991ZM27.6002 39.6781C28.234 40.0795 29.1018 40.2479 30.1391 40.2479V39.2479C29.1843 39.2479 28.5379 39.0882 28.1353 38.8332L27.6002 39.6781ZM30.1391 40.2479C31.1679 40.2479 32.1718 40.1651 33.1505 39.9991L32.9832 39.0132C32.0619 39.1695 31.114 39.2479 30.1391 39.2479V40.2479ZM32.567 39.5172L32.6275 42.2377L33.6272 42.2155L33.5667 39.495L32.567 39.5172ZM33.0001 41.7431C31.953 42.0186 30.8045 42.1584 29.5518 42.1584V43.1584C30.8786 43.1584 32.1138 43.0103 33.2546 42.7101L33.0001 41.7431ZM29.5518 42.1584C28.285 42.1584 27.243 42.0591 26.4167 41.8689L26.1923 42.8434C27.1164 43.0562 28.2392 43.1584 29.5518 43.1584V42.1584ZM26.4137 41.8682C25.5561 41.6764 24.9136 41.4679 24.4685 41.2505L24.0296 42.1491C24.5748 42.4153 25.3027 42.6444 26.1954 42.8441L26.4137 41.8682ZM24.4685 41.2505C24.0068 41.025 23.6049 40.765 23.2598 40.4721L22.6128 41.2347C23.0277 41.5867 23.501 41.8909 24.0296 42.1491L24.4685 41.2505ZM23.259 40.4715C22.564 39.8841 22.2135 39.1085 22.2186 38.0922L21.2186 38.0872C21.2121 39.374 21.6735 40.4409 22.6136 41.2353L23.259 40.4715ZM22.2186 38.0897C22.2186 37.4433 22.3458 36.875 22.5908 36.3752L21.6928 35.9352C21.3734 36.5869 21.2186 37.3083 21.2186 38.0897H22.2186ZM22.5904 36.3758C23.0431 35.4554 23.8376 34.7609 25.031 34.3081L24.6762 33.3731C23.2902 33.8991 22.2768 34.7476 21.6931 35.9345L22.5904 36.3758ZM25.0328 34.3074C26.2586 33.8368 27.6191 33.5979 29.12 33.5979V32.5979C27.5118 32.5979 26.028 32.8541 24.6744 33.3738L25.0328 34.3074ZM29.12 33.5979C30.6374 33.5979 32.0707 33.7664 33.4216 34.1014L33.6622 33.1307C32.2264 32.7748 30.7118 32.5979 29.12 32.5979V33.5979ZM33.0434 33.5772L32.8275 36.3495L33.8245 36.4272L34.0404 33.6549L33.0434 33.5772ZM33.4191 35.8971C32.516 35.7259 31.698 35.6379 30.9682 35.6379V36.6379C31.6203 36.6379 32.3741 36.7168 33.2329 36.8796L33.4191 35.8971ZM42.1196 36.9324L42.1168 37.4324L42.625 37.4353L42.6196 36.9271L42.1196 36.9324ZM41.7396 35.7838L41.3993 36.1502L41.4037 36.1542L41.7396 35.7838ZM39.5373 35.8702L39.8836 36.2309L39.8873 36.2273L39.5373 35.8702ZM39.0018 36.9152L38.5085 36.8341L38.4135 37.4119L38.9991 37.4152L39.0018 36.9152ZM45.5051 41.6307L45.8071 42.0291L45.9869 41.8929L46.0037 41.668L45.5051 41.6307ZM43.5964 42.3389L43.4889 41.8505L43.486 41.8512L43.5964 42.3389ZM36.9636 42.097L36.7931 42.5671L36.7972 42.5685L36.9636 42.097ZM35.4523 41.2939L35.1419 41.6859L35.1479 41.6906L35.4523 41.2939ZM34.4418 40.0243L33.9936 40.2459L33.9946 40.2479L34.4418 40.0243ZM35.4782 34.6611L35.8107 35.0345L35.8109 35.0343L35.4782 34.6611ZM43.5619 33.7024L43.7619 33.2441L43.7572 33.2421L43.5619 33.7024ZM45.5915 35.5679L45.1418 35.7865L45.1431 35.7893L45.5915 35.5679ZM45.9369 37.1138L46.4356 37.1501L46.4369 37.132V37.1138H45.9369ZM45.8333 38.5388L45.8308 39.0388L46.2981 39.0411L46.332 38.5751L45.8333 38.5388ZM38.8291 38.5043L38.8316 38.0043L38.1793 38.0011L38.3456 38.6318L38.8291 38.5043ZM39.8309 39.7393L39.5849 40.1746L39.5869 40.1757L39.8309 39.7393ZM45.2028 39.437V38.937H45.1029L45.0107 38.9754L45.2028 39.437ZM45.6692 39.437L46.1678 39.4743L46.208 38.937H45.6692V39.437ZM42.6196 36.9271C42.6132 36.3302 42.475 35.7758 42.0755 35.4134L41.4037 36.1542C41.4993 36.2409 41.6145 36.4522 41.6196 36.9378L42.6196 36.9271ZM42.0798 35.4174C41.7123 35.0761 41.2129 34.947 40.6687 34.947V35.947C41.0687 35.947 41.2832 36.0424 41.3994 36.1502L42.0798 35.4174ZM40.6687 34.947C40.0936 34.947 39.5834 35.1249 39.1873 35.5131L39.8873 36.2273C40.067 36.0512 40.311 35.947 40.6687 35.947V34.947ZM39.191 35.5095C38.8198 35.8659 38.5938 36.3148 38.5085 36.8341L39.4952 36.9963C39.548 36.675 39.6791 36.4272 39.8836 36.2309L39.191 35.5095ZM38.9991 37.4152L42.1168 37.4324L42.1224 36.4325L39.0046 36.4152L38.9991 37.4152ZM45.203 41.2322C44.9383 41.4329 44.3944 41.6512 43.4889 41.8506L43.7039 42.8272C44.6294 42.6235 45.3579 42.3696 45.8071 42.0291L45.203 41.2322ZM43.486 41.8512C42.6037 42.051 41.7512 42.1498 40.9278 42.1498V43.1498C41.8316 43.1498 42.7583 43.0413 43.7068 42.8265L43.486 41.8512ZM40.9278 42.1498C40.0838 42.1498 39.3791 42.11 38.8095 42.0333L38.676 43.0244C39.304 43.1089 40.056 43.1498 40.9278 43.1498V42.1498ZM38.8095 42.0333C38.2457 41.9574 37.686 41.8218 37.13 41.6256L36.7972 42.5685C37.4158 42.7869 38.0422 42.9391 38.676 43.0244L38.8095 42.0333ZM37.1341 41.627C36.5866 41.4284 36.1298 41.1834 35.7566 40.8971L35.1479 41.6906C35.6154 42.0491 36.1661 42.3396 36.7931 42.5671L37.1341 41.627ZM35.7626 40.9018C35.4108 40.6233 35.1185 40.2597 34.889 39.8007L33.9946 40.2479C34.2832 40.8252 34.6646 41.308 35.1419 41.6859L35.7626 40.9018ZM34.89 39.8027C34.6722 39.3622 34.5532 38.8169 34.5532 38.1502H33.5532C33.5532 38.9344 33.6932 39.6385 33.9936 40.2459L34.89 39.8027ZM34.5532 38.1502C34.5532 37.4806 34.6741 36.8785 34.9091 36.3369L33.9918 35.9388C33.6971 36.618 33.5532 37.3573 33.5532 38.1502H34.5532ZM34.9091 36.3369C35.1503 35.7812 35.4536 35.3525 35.8107 35.0345L35.1457 34.2876C34.6622 34.7182 34.2803 35.2739 33.9918 35.9388L34.9091 36.3369ZM35.8109 35.0343C36.8563 34.1022 38.4118 33.5979 40.5564 33.5979V32.5979C38.2677 32.5979 36.4377 33.1357 35.1454 34.2879L35.8109 35.0343ZM40.5564 33.5979C41.5444 33.5979 42.4797 33.7864 43.3666 34.1627L43.7572 33.2421C42.7441 32.8123 41.6757 32.5979 40.5564 32.5979V33.5979ZM43.3619 34.1607C44.2173 34.5339 44.7973 35.0779 45.1418 35.7865L46.0411 35.3493C45.5795 34.3997 44.8065 33.7 43.7619 33.2441L43.3619 34.1607ZM45.1431 35.7893C45.3366 36.1811 45.4369 36.6197 45.4369 37.1138H46.4369C46.4369 36.4794 46.3069 35.8874 46.0398 35.3465L45.1431 35.7893ZM45.4382 37.0775L45.3346 38.5026L46.332 38.5751L46.4356 37.1501L45.4382 37.0775ZM45.8357 38.0388L38.8316 38.0043L38.8266 39.0043L45.8308 39.0388L45.8357 38.0388ZM38.3456 38.6318C38.5226 39.3027 38.9536 39.8178 39.5849 40.1746L40.077 39.304C39.6489 39.062 39.412 38.7537 39.3126 38.3768L38.3456 38.6318ZM39.5869 40.1757C40.2252 40.5326 41.0489 40.6884 42.016 40.6884V39.6884C41.1406 39.6884 40.5076 39.5448 40.075 39.3029L39.5869 40.1757ZM42.016 40.6884C43.0245 40.6884 44.1541 40.4152 45.395 39.8986L45.0107 38.9754C43.8448 39.4607 42.8499 39.6884 42.016 39.6884V40.6884ZM45.2028 39.937H45.6692V38.937H45.2028V39.937ZM45.1706 39.3997L45.0065 41.5934L46.0037 41.668L46.1678 39.4743L45.1706 39.3997Z" />
   </symbol>

   <symbol id="forward-arrow" viewBox="0 0 12 12" xmlns="http://www.w3.org/2000/svg">
      <path d="M4 2L8.94845 6L4 10" stroke-width="2" stroke-linecap="round" stroke-linejoin="round" />
   </symbol>

   <symbol id="arrow" viewBox="0 0 51 16" xmlns="http://www.w3.org/2000/svg">
      <path d="M50.7071 8.70711C51.0976 8.31658 51.0976 7.68342 50.7071 7.29289L44.3431 0.928932C43.9526 0.538408 43.3195 0.538408 42.9289 0.928932C42.5384 1.31946 42.5384 1.95262 42.9289 2.34315L48.5858 8L42.9289 13.6569C42.5384 14.0474 42.5384 14.6805 42.9289 15.0711C43.3195 15.4616 43.9526 15.4616 44.3431 15.0711L50.7071 8.70711ZM0 9H50V7H0V9Z"/>
   </symbol>
   
   <symbol id="dots-group-left" viewBox="0 0 172 56"  xmlns="http://www.w3.org/2000/svg">
      <ellipse cx="5.85842" cy="46.478" rx="5.85842" ry="6.2439"/>
      <ellipse cx="18.5513" cy="38.1528" rx="5.85842" ry="6.2439"/>
      <ellipse cx="33.1978" cy="28.7871" rx="5.85842" ry="6.2439"/>
      <ellipse cx="46.8672" cy="20.4619" rx="5.85842" ry="6.2439"/>
      <ellipse cx="80.065" cy="49.6001" rx="5.85842" ry="6.2439"/>
      <ellipse cx="92.7578" cy="41.2749" rx="5.85842" ry="6.2439"/>
      <ellipse cx="107.404" cy="31.9089" rx="5.85842" ry="6.2439"/>
      <ellipse cx="121.074" cy="23.5837" rx="5.85842" ry="6.2439"/>
      <ellipse cx="110.334" cy="45.4375" rx="5.85842" ry="6.2439"/>
      <ellipse cx="123.027" cy="37.1123" rx="5.85842" ry="6.2439"/>
      <ellipse cx="137.673" cy="27.7463" rx="5.85842" ry="6.2439"/>
      <ellipse cx="151.343" cy="19.4211" rx="5.85842" ry="6.2439"/>
      <ellipse cx="165.989" cy="6.93336" rx="5.85842" ry="6.2439"/>
      <ellipse cx="134.744" cy="14.218" rx="5.85842" ry="6.2439"/>
      <ellipse cx="28.3159" cy="47.5187" rx="5.85842" ry="6.2439"/>
      <ellipse cx="41.0088" cy="39.1935" rx="5.85842" ry="6.2439"/>
      <ellipse cx="55.6548" cy="29.8276" rx="5.85842" ry="6.2439"/>
      <ellipse cx="69.3242" cy="21.5026" rx="5.85842" ry="6.2439"/>
      <ellipse cx="52.7256" cy="48.5593" rx="5.85842" ry="6.2439"/>
      <ellipse cx="65.419" cy="40.2341" rx="5.85842" ry="6.2439"/>
      <ellipse cx="80.065" cy="30.8683" rx="5.85842" ry="6.2439"/>
      <ellipse cx="93.7349" cy="22.5431" rx="5.85842" ry="6.2439"/>
   </symbol>

   <symbol id="dots-group-center" viewBox="0 0 490 343" xmlns="http://www.w3.org/2000/svg">
      <ellipse cx="207.193" cy="32.7546" rx="5.85842" ry="6.2439"/>
      <ellipse cx="219.886" cy="24.4294" rx="5.85842" ry="6.2439"/>
      <ellipse cx="234.532" cy="15.0635" rx="5.85842" ry="6.2439"/>
      <ellipse cx="248.202" cy="6.73829" rx="5.85842" ry="6.2439"/>
      <ellipse cx="194.641" cy="57.6082" rx="5.85842" ry="6.2439"/>
      <ellipse cx="207.335" cy="49.283" rx="5.85842" ry="6.2439"/>
      <ellipse cx="221.98" cy="39.917" rx="5.85842" ry="6.2439"/>
      <ellipse cx="235.65" cy="31.592" rx="5.85842" ry="6.2439"/>
      <ellipse cx="166.325" cy="58.6489" rx="5.85842" ry="6.2439"/>
      <ellipse cx="179.019" cy="50.3237" rx="5.85842" ry="6.2439"/>
      <ellipse cx="193.665" cy="40.9578" rx="5.85842" ry="6.2439"/>
      <ellipse cx="207.335" cy="32.6326" rx="5.85842" ry="6.2439"/>
      <ellipse cx="150.703" cy="82.5837" rx="5.85842" ry="6.2439"/>
      <ellipse cx="163.396" cy="74.2586" rx="5.85842" ry="6.2439"/>
      <ellipse cx="178.042" cy="64.8926" rx="5.85842" ry="6.2439"/>
      <ellipse cx="191.712" cy="56.5676" rx="5.85842" ry="6.2439"/>
      <ellipse cx="138.986" cy="104.438" rx="5.85842" ry="6.2439"/>
      <ellipse cx="151.679" cy="96.1123" rx="5.85842" ry="6.2439"/>
      <ellipse cx="166.325" cy="86.7466" rx="5.85842" ry="6.2439"/>
      <ellipse cx="179.995" cy="78.4212" rx="5.85842" ry="6.2439"/>
      <ellipse cx="5.85842" cy="6.2439" rx="5.85842" ry="6.2439" transform="matrix(0.999999 0.00156002 -0.00137335 0.999999 124.358 120.047)"/>
      <ellipse cx="5.85842" cy="6.2439" rx="5.85842" ry="6.2439" transform="matrix(0.999999 0.00156002 -0.00137335 0.999999 137.062 111.742)"/>
      <ellipse cx="5.85842" cy="6.2439" rx="5.85842" ry="6.2439" transform="matrix(0.999999 0.00156002 -0.00137335 0.999999 151.722 102.399)"/>
      <ellipse cx="5.85842" cy="6.2439" rx="5.85842" ry="6.2439" transform="matrix(0.999999 0.00156002 -0.00137335 0.999999 165.403 94.095)"/>
      <ellipse cx="5.85842" cy="6.2439" rx="5.85842" ry="6.2439" transform="matrix(0.999999 0.00156002 -0.00137335 0.999999 0.37793 157.553)"/>
      <ellipse cx="5.85842" cy="6.2439" rx="5.85842" ry="6.2439" transform="matrix(0.999999 0.00156002 -0.00137335 0.999999 14.0596 149.25)"/>
      <ellipse cx="5.85842" cy="6.2439" rx="5.85842" ry="6.2439" transform="matrix(0.999999 0.00156002 -0.00137335 0.999999 85.3013 129.413)"/>
      <ellipse cx="5.85842" cy="6.2439" rx="5.85842" ry="6.2439" transform="matrix(0.999999 0.00156002 -0.00137335 0.999999 98.0059 121.108)"/>
      <ellipse cx="5.85842" cy="6.2439" rx="5.85842" ry="6.2439" transform="matrix(0.999999 0.00156002 -0.00137335 0.999999 112.665 111.765)"/>
      <ellipse cx="5.85842" cy="6.2439" rx="5.85842" ry="6.2439" transform="matrix(0.999999 0.00156002 -0.00137335 0.999999 126.346 103.461)"/>
      <ellipse cx="7.17141" cy="145.023" rx="5.85842" ry="6.2439"/>
      <ellipse cx="20.8413" cy="136.698" rx="5.85842" ry="6.2439"/>
      <ellipse cx="39.3926" cy="127.332" rx="5.85842" ry="6.2439"/>
      <ellipse cx="52.0864" cy="119.007" rx="5.85842" ry="6.2439"/>
      <ellipse cx="66.7324" cy="109.641" rx="5.85842" ry="6.2439"/>
      <ellipse cx="80.4019" cy="101.315" rx="5.85842" ry="6.2439"/>
      <ellipse cx="64.7793" cy="139.82" rx="5.85842" ry="6.2439"/>
      <ellipse cx="77.4727" cy="131.495" rx="5.85842" ry="6.2439"/>
      <ellipse cx="92.1192" cy="122.129" rx="5.85842" ry="6.2439"/>
      <ellipse cx="105.789" cy="113.803" rx="5.85842" ry="6.2439"/>
      <ellipse cx="66.7324" cy="123.169" rx="5.85842" ry="6.2439"/>
      <ellipse cx="79.4258" cy="114.844" rx="5.85842" ry="6.2439"/>
      <ellipse cx="94.0718" cy="105.478" rx="5.85842" ry="6.2439"/>
      <ellipse cx="107.741" cy="97.1528" rx="5.85842" ry="6.2439"/>
      <ellipse cx="13.0298" cy="129.413" rx="5.85842" ry="6.2439"/>
      <ellipse cx="25.7232" cy="121.088" rx="5.85842" ry="6.2439"/>
      <ellipse cx="40.3697" cy="111.722" rx="5.85842" ry="6.2439"/>
      <ellipse cx="54.0386" cy="103.397" rx="5.85842" ry="6.2439"/>
      <ellipse cx="213.193" cy="59.6895" rx="5.85842" ry="6.2439"/>
      <ellipse cx="225.886" cy="51.3643" rx="5.85842" ry="6.2439"/>
      <ellipse cx="240.532" cy="41.9983" rx="5.85842" ry="6.2439"/>
      <ellipse cx="254.202" cy="33.6733" rx="5.85842" ry="6.2439"/>
      <ellipse cx="211.24" cy="102.356" rx="5.85842" ry="6.2439" />
      <ellipse cx="223.933" cy="94.031" rx="5.85842" ry="6.2439" />
      <ellipse cx="238.58" cy="84.665" rx="5.85842" ry="6.2439"/>
      <ellipse cx="252.249" cy="76.3396" rx="5.85842" ry="6.2439"/>
      <ellipse cx="214.169" cy="80.5024" rx="5.85842" ry="6.2439"/>
      <ellipse cx="226.862" cy="72.1773" rx="5.85842" ry="6.2439"/>
      <ellipse cx="241.509" cy="62.8113" rx="5.85842" ry="6.2439"/>
      <ellipse cx="255.178" cy="54.4863" rx="5.85842" ry="6.2439"/>
      <ellipse cx="212.216" cy="123.169" rx="5.85842" ry="6.2439"/>
      <ellipse cx="224.91" cy="114.844" rx="5.85842" ry="6.2439"/>
      <ellipse cx="239.556" cy="105.478" rx="5.85842" ry="6.2439"/>
      <ellipse cx="253.225" cy="97.1528" rx="5.85842" ry="6.2439"/>
      <ellipse cx="218.075" cy="137.739" rx="5.85842" ry="6.2439"/>
      <ellipse cx="230.768" cy="129.413" rx="5.85842" ry="6.2439"/>
      <ellipse cx="245.414" cy="120.047" rx="5.85842" ry="6.2439"/>
      <ellipse cx="259.084" cy="111.722" rx="5.85842" ry="6.2439"/>
      <ellipse cx="230.768" cy="149.185" rx="5.85842" ry="6.2439"/>
      <ellipse cx="243.461" cy="140.86" rx="5.85842" ry="6.2439"/>
      <ellipse cx="258.107" cy="131.494" rx="5.85842" ry="6.2439"/>
      <ellipse cx="271.777" cy="123.169" rx="5.85842" ry="6.2439"/>
      <ellipse cx="247.367" cy="158.551" rx="5.85842" ry="6.2439"/>
      <ellipse cx="260.06" cy="150.226" rx="5.85842" ry="6.2439"/>
      <ellipse cx="274.706" cy="140.86" rx="5.85842" ry="6.2439"/>
      <ellipse cx="288.376" cy="132.535" rx="5.85842" ry="6.2439"/>
      <ellipse cx="266.895" cy="160.633" rx="5.85842" ry="6.2439"/>
      <ellipse cx="279.588" cy="152.307" rx="5.85842" ry="6.2439"/>
      <ellipse cx="294.234" cy="142.941" rx="5.85842" ry="6.2439"/>
      <ellipse cx="307.904" cy="134.616" rx="5.85842" ry="6.2439"/>
      <ellipse cx="286.423" cy="164.795" rx="5.85842" ry="6.2439"/>
      <ellipse cx="299.117" cy="156.47" rx="5.85842" ry="6.2439"/>
      <ellipse cx="313.763" cy="147.104" rx="5.85842" ry="6.2439"/>
      <ellipse cx="327.433" cy="138.779" rx="5.85842" ry="6.2439"/>
      <ellipse cx="281.542" cy="184.568" rx="5.85842" ry="6.2439"/>
      <ellipse cx="294.234" cy="176.242" rx="5.85842" ry="6.2439"/>
      <ellipse cx="308.88" cy="166.876" rx="5.85842" ry="6.2439"/>
      <ellipse cx="322.55" cy="158.551" rx="5.85842" ry="6.2439"/>
      <ellipse cx="279.588" cy="203.299" rx="5.85842" ry="6.2439"/>
      <ellipse cx="292.282" cy="194.974" rx="5.85842" ry="6.2439"/>
      <ellipse cx="306.928" cy="185.608" rx="5.85842" ry="6.2439"/>
      <ellipse cx="320.597" cy="177.283" rx="5.85842" ry="6.2439"/>
      <ellipse cx="272.753" cy="227.234" rx="5.85842" ry="6.2439"/>
      <ellipse cx="285.447" cy="218.909" rx="5.85842" ry="6.2439"/>
      <ellipse cx="300.093" cy="209.543" rx="5.85842" ry="6.2439"/>
      <ellipse cx="313.763" cy="201.218" rx="5.85842" ry="6.2439"/>
      <ellipse cx="269.824" cy="248.047" rx="5.85842" ry="6.2439"/>
      <ellipse cx="282.517" cy="239.722" rx="5.85842" ry="6.2439"/>
      <ellipse cx="297.163" cy="230.356" rx="5.85842" ry="6.2439"/>
      <ellipse cx="310.833" cy="222.031" rx="5.85842" ry="6.2439"/>
      <ellipse cx="265.918" cy="269.901" rx="5.85842" ry="6.2439"/>
      <ellipse cx="278.612" cy="261.576" rx="5.85842" ry="6.2439"/>
      <ellipse cx="293.258" cy="252.21" rx="5.85842" ry="6.2439"/>
      <ellipse cx="306.928" cy="243.885" rx="5.85842" ry="6.2439"/>
      <ellipse cx="263.965" cy="287.592" rx="5.85842" ry="6.2439"/>
      <ellipse cx="276.659" cy="279.267" rx="5.85842" ry="6.2439"/>
      <ellipse cx="291.305" cy="269.901" rx="5.85842" ry="6.2439"/>
      <ellipse cx="304.975" cy="261.576" rx="5.85842" ry="6.2439"/>
      <ellipse cx="262.013" cy="306.324" rx="5.85842" ry="6.2439"/>
      <ellipse cx="274.707" cy="297.998" rx="5.85842" ry="6.2439"/>
      <ellipse cx="289.353" cy="288.633" rx="5.85842" ry="6.2439"/>
      <ellipse cx="303.022" cy="280.307" rx="5.85842" ry="6.2439"/>
      <ellipse cx="267.871" cy="321.933" rx="5.85842" ry="6.2439"/>
      <ellipse cx="280.564" cy="313.608" rx="5.85842" ry="6.2439"/>
      <ellipse cx="295.21" cy="304.242" rx="5.85842" ry="6.2439"/>
      <ellipse cx="308.88" cy="295.917" rx="5.85842" ry="6.2439"/>
      <ellipse cx="282.518" cy="330.259" rx="5.85842" ry="6.2439"/>
      <ellipse cx="295.211" cy="321.933" rx="5.85842" ry="6.2439"/>
      <ellipse cx="309.857" cy="312.568" rx="5.85842" ry="6.2439"/>
      <ellipse cx="323.526" cy="304.242" rx="5.85842" ry="6.2439"/>
      <ellipse cx="299.117" cy="335.462" rx="5.85842" ry="6.2439"/>
      <ellipse cx="311.81" cy="327.137" rx="5.85842" ry="6.2439"/>
      <ellipse cx="326.456" cy="317.771" rx="5.85842" ry="6.2439"/>
      <ellipse cx="340.126" cy="309.446" rx="5.85842" ry="6.2439"/>
      <ellipse cx="320.597" cy="336.503" rx="5.85842" ry="6.2439"/>
      <ellipse cx="333.291" cy="328.177" rx="5.85842" ry="6.2439"/>
      <ellipse cx="347.937" cy="318.811" rx="5.85842" ry="6.2439"/>
      <ellipse cx="361.606" cy="310.486" rx="5.85842" ry="6.2439"/>
      <ellipse cx="345.984" cy="336.503" rx="5.85842" ry="6.2439"/>
      <ellipse cx="358.677" cy="328.177" rx="5.85842" ry="6.2439"/>
      <ellipse cx="373.323" cy="318.811" rx="5.85842" ry="6.2439"/>
      <ellipse cx="386.993" cy="310.486" rx="5.85842" ry="6.2439"/>
      <ellipse cx="367.464" cy="335.462" rx="5.85842" ry="6.2439"/>
      <ellipse cx="380.157" cy="327.137" rx="5.85842" ry="6.2439"/>
      <ellipse cx="394.804" cy="317.771" rx="5.85842" ry="6.2439"/>
      <ellipse cx="408.473" cy="309.446" rx="5.85842" ry="6.2439"/>
      <ellipse cx="391.875" cy="334.421" rx="5.85842" ry="6.2439"/>
      <ellipse cx="404.568" cy="326.096" rx="5.85842" ry="6.2439"/>
      <ellipse cx="419.213" cy="316.73" rx="5.85842" ry="6.2439"/>
      <ellipse cx="432.883" cy="308.405" rx="5.85842" ry="6.2439"/>
      <ellipse cx="414.332" cy="307.364" rx="5.85842" ry="6.2439"/>
      <ellipse cx="427.025" cy="299.039" rx="5.85842" ry="6.2439"/>
      <ellipse cx="441.671" cy="289.673" rx="5.85842" ry="6.2439"/>
      <ellipse cx="455.341" cy="281.348" rx="5.85842" ry="6.2439"/>
      <ellipse cx="5.86756" cy="6.23532" rx="5.86756" ry="6.23532" transform="matrix(0.986913 -0.161253 0.142374 0.989813 439.512 302.051)"/>
      <ellipse cx="5.86756" cy="6.23532" rx="5.86756" ry="6.23532" transform="matrix(0.986913 -0.161253 0.142374 0.989813 450.875 291.772)"/>
      <ellipse cx="5.86756" cy="6.23532" rx="5.86756" ry="6.23532" transform="matrix(0.986913 -0.161253 0.142374 0.989813 464.021 280.149)"/>
      <ellipse cx="5.86756" cy="6.23532" rx="5.86756" ry="6.23532" transform="matrix(0.986913 -0.161253 0.142374 0.989813 476.349 269.712)"/>
   </symbol>

   <symbol id="dots-group-right" viewBox="0 0 285 110" xmlns="http://www.w3.org/2000/svg">
      <ellipse cx="110.248" cy="102.21" rx="5.85842" ry="6.2439"/>
      <ellipse cx="122.94" cy="93.8848" rx="5.85842" ry="6.2439"/>
      <ellipse cx="137.586" cy="84.5188" rx="5.85842" ry="6.2439"/>
      <ellipse cx="151.256" cy="76.1935" rx="5.85842" ry="6.2439"/>
      <ellipse cx="143.445" cy="98.0472" rx="5.85842" ry="6.2439"/>
      <ellipse cx="156.138" cy="89.7221" rx="5.85842" ry="6.2439"/>
      <ellipse cx="170.784" cy="80.3561" rx="5.85842" ry="6.2439"/>
      <ellipse cx="184.454" cy="72.0309" rx="5.85842" ry="6.2439"/>
      <ellipse cx="171.761" cy="94.9252" rx="5.85842" ry="6.2439"/>
      <ellipse cx="184.455" cy="86.6001" rx="5.85842" ry="6.2439"/>
      <ellipse cx="199.101" cy="77.2341" rx="5.85842" ry="6.2439"/>
      <ellipse cx="212.77" cy="68.9089" rx="5.85842" ry="6.2439"/>
      <ellipse cx="199.101" cy="90.7626" rx="5.85842" ry="6.2439"/>
      <ellipse cx="211.793" cy="82.4375" rx="5.85842" ry="6.2439"/>
      <ellipse cx="226.439" cy="73.0715" rx="5.85842" ry="6.2439"/>
      <ellipse cx="240.109" cy="64.7463" rx="5.85842" ry="6.2439"/>
      <ellipse cx="207.888" cy="102.21" rx="5.85842" ry="6.2439"/>
      <ellipse cx="220.581" cy="93.8848" rx="5.85842" ry="6.2439"/>
      <ellipse cx="238.156" cy="103.25" rx="5.85842" ry="6.2439"/>
      <ellipse cx="235.227" cy="84.5188" rx="5.85842" ry="6.2439"/>
      <ellipse cx="252.802" cy="93.8848" rx="5.85842" ry="6.2439"/>
      <ellipse cx="266.471" cy="103.25" rx="5.85842" ry="6.2439"/>
      <ellipse cx="248.897" cy="76.1935" rx="5.85842" ry="6.2439"/>
      <ellipse cx="266.471" cy="85.5593" rx="5.85842" ry="6.2439"/>
      <ellipse cx="278.141" cy="94.9253" rx="5.85842" ry="6.2439"/>
      <ellipse cx="50.687" cy="33.5269" rx="5.85842" ry="6.2439"/>
      <ellipse cx="63.3799" cy="25.2017" rx="5.85842" ry="6.2439"/>
      <ellipse cx="78.0264" cy="15.8358" rx="5.85842" ry="6.2439"/>
      <ellipse cx="91.6953" cy="7.5105" rx="5.85842" ry="6.2439"/>
      <ellipse cx="26.2764" cy="32.4862" rx="5.85842" ry="6.2439"/>
      <ellipse cx="38.9697" cy="24.161" rx="5.85842" ry="6.2439"/>
      <ellipse cx="53.6162" cy="14.7953" rx="5.85842" ry="6.2439"/>
      <ellipse cx="67.2852" cy="6.46998" rx="5.85842" ry="6.2439"/>
      <ellipse cx="80.9556" cy="102.21" rx="5.85842" ry="6.2439"/>
      <ellipse cx="93.6485" cy="93.8848" rx="5.85842" ry="6.2439"/>
      <ellipse cx="108.295" cy="84.5188" rx="5.85842" ry="6.2439"/>
      <ellipse cx="121.964" cy="76.1935" rx="5.85842" ry="6.2439"/>
      <ellipse cx="65.333" cy="95.9658" rx="5.85842" ry="6.2439"/>
      <ellipse cx="78.0264" cy="87.6406" rx="5.85842" ry="6.2439"/>
      <ellipse cx="92.6724" cy="78.2749" rx="5.85842" ry="6.2439"/>
      <ellipse cx="106.341" cy="69.9496" rx="5.85842" ry="6.2439"/>
      <ellipse cx="71.1914" cy="74.1123" rx="5.85842" ry="6.2439"/>
      <ellipse cx="83.8848" cy="65.7871" rx="5.85842" ry="6.2439"/>
      <ellipse cx="98.5308" cy="56.4212" rx="5.85842" ry="6.2439"/>
      <ellipse cx="112.2" cy="48.096" rx="5.85842" ry="6.2439"/>
      <ellipse cx="6.74905" cy="27.283" rx="5.85842" ry="6.2439"/>
      <ellipse cx="19.4419" cy="18.9579" rx="5.85842" ry="6.2439"/>
      <ellipse cx="34.0879" cy="9.59205" rx="5.85842" ry="6.2439"/>
      <ellipse cx="68.2622" cy="57.4618" rx="5.85842" ry="6.2439"/>
      <ellipse cx="80.9556" cy="49.1366" rx="5.85842" ry="6.2439"/>
      <ellipse cx="95.6016" cy="39.7708" rx="5.85842" ry="6.2439"/>
      <ellipse cx="109.271" cy="31.4456" rx="5.85842" ry="6.2439"/>
      <ellipse cx="71.1914" cy="37.6895" rx="5.85842" ry="6.2439"/>
      <ellipse cx="83.8848" cy="29.3643" rx="5.85842" ry="6.2439"/>
      <ellipse cx="98.5308" cy="19.9984" rx="5.85842" ry="6.2439"/>
      <ellipse cx="112.2" cy="12.6731" rx="5.85842" ry="6.2439"/>
   </symbol>

   <symbol id="cow" viewBox="0 0 36 37" xmlns="http://www.w3.org/2000/svg">     
      <path d="M6.93937 0.899403C6.64615 1.15302 5.80724 2.90303 5.50588 3.85834C5.14751 5.04191 5.02534 5.9296 5.07421 7.15544C5.13937 8.90544 5.57919 10.2327 6.54842 11.6192C6.80091 11.9827 7.00453 12.2955 7.00453 12.3209C7.00453 12.3378 6.84977 12.3547 6.6543 12.3547C5.81538 12.3547 4.24344 12.6337 3.03801 12.9972C1.12398 13.5721 0 14.5781 0 15.7025C0 16.0999 0.358371 16.7762 0.741176 17.1228C1.48235 17.7907 3.10317 18.4248 4.84615 18.7291C5.44887 18.839 7.24072 19.025 7.63982 19.0335C7.71312 19.0335 7.73756 19.4223 7.73756 20.6989C7.73756 21.7979 7.77828 22.6518 7.85973 23.176C8.15294 25.0528 9.06516 27.0395 10.2706 28.4429L10.686 28.9248L10.409 29.3728C10.0018 30.0069 9.84706 30.4888 9.79819 31.2074C9.67602 32.932 10.7511 34.4622 12.8281 35.5359C16.7864 37.5902 22.9357 36.7871 25.2407 33.9127C26.3647 32.5093 26.495 30.903 25.6072 29.4489L25.3303 29.0008L25.8272 28.4006C26.7557 27.2847 27.3584 26.1687 27.8145 24.7569C28.1973 23.5564 28.3439 22.3982 28.3439 20.5636C28.3439 19.7267 28.3683 19.0335 28.4091 19.0335C28.7837 19.025 30.5837 18.8306 31.1538 18.7291C32.905 18.4248 34.4932 17.7992 35.2588 17.1228C35.6416 16.7762 36 16.0999 36 15.7025C36 14.4513 34.7294 13.4368 32.3674 12.8281C31.5937 12.6252 30.1357 12.3801 29.4272 12.3378L29.0932 12.3124L29.4597 11.8052C29.9158 11.188 30.486 9.98757 30.7059 9.20133C31.3249 6.92718 30.9421 4.28104 29.6145 1.75327C29.0606 0.704956 28.6778 0.459789 28.2299 0.874039C28.0588 1.03467 27.9855 1.25447 27.8226 2.04916C27.3176 4.57693 26.381 6.58056 25.0127 8.06003L24.41 8.71945H17.9674H11.5249L10.9873 8.13612C9.65158 6.6651 8.68235 4.58539 8.17738 2.04916C8.01448 1.25447 7.94118 1.03467 7.77014 0.874039C7.50136 0.628872 7.24072 0.637325 6.93937 0.899403ZM7.9819 5.91269C8.41358 6.85955 8.95113 7.74723 9.58643 8.56728L10.0914 9.21824L9.56199 9.61559C9.06516 9.99602 8.60091 10.5371 8.24253 11.1542L8.08778 11.4332L7.69683 10.9006C6.36109 9.05761 6.02715 6.80037 6.73575 4.45858C7.07783 3.32573 7.06968 3.33419 7.37919 4.31486C7.52579 4.78829 7.80272 5.50689 7.9819 5.91269ZM29.1828 4.12887C29.5167 5.13491 29.6471 5.93805 29.6471 6.9779C29.6471 8.51655 29.2398 9.81848 28.3846 10.9851L28.0018 11.5093L27.7167 11.0274C27.3828 10.4356 26.8127 9.81848 26.2914 9.46341C26.0715 9.31969 25.9005 9.17597 25.9005 9.15906C25.9005 9.1337 26.0552 8.93926 26.2507 8.7279C27.1548 7.72186 28.124 5.91269 28.6045 4.35713C28.7511 3.87525 28.8977 3.47791 28.9222 3.47791C28.9466 3.47791 29.0688 3.7738 29.1828 4.12887ZM25.0208 10.3088C25.9249 10.6893 26.7882 11.7798 26.9267 12.7013C27 13.2086 27.171 13.5298 27.391 13.5806C27.4887 13.5975 28.1647 13.6566 28.8896 13.7074C31.4634 13.8765 33.4914 14.426 34.3548 15.1784C34.7538 15.5335 34.7131 15.8294 34.2326 16.1929C33.2715 16.9199 31.1946 17.4694 29.0769 17.5624C27.676 17.6216 27.3828 17.6639 27.1955 17.8583C27.057 18.0021 27.0407 18.1542 27.0407 19.6844C27.0407 21.7557 26.9348 22.9477 26.6742 23.9115C26.3077 25.2219 25.5828 26.6168 24.7357 27.6059L24.3855 28.0117L23.6606 27.5806C22.781 27.0564 21.9584 26.7182 20.9729 26.49C17.886 25.7545 14.4733 26.2025 12.1765 27.6482L11.6471 27.9864L11.3131 27.589C10.857 27.0564 10.1403 25.9151 9.8552 25.2726C9.22806 23.8185 9.04072 22.6349 9.04072 20.031C9.04072 17.5033 9.17104 17.6893 7.29774 17.5878C4.90317 17.461 3.07873 17.0298 1.93032 16.3028C1.08326 15.7617 1.22172 15.2798 2.40271 14.7134C3.53484 14.1639 5.0905 13.8342 7.24887 13.6989C8.9267 13.589 8.96742 13.5637 9.12217 12.7521C9.35023 11.5262 10.2543 10.5117 11.3946 10.1905C11.6796 10.1059 13.276 10.089 18.1629 10.0975L24.5566 10.1144L25.0208 10.3088ZM20.4434 27.8088C22.4389 28.2992 23.9294 29.2122 24.5729 30.345C24.7276 30.6071 24.7928 30.8777 24.8253 31.2919C24.8579 31.8076 24.8335 31.9344 24.638 32.3571C23.7339 34.2762 20.4109 35.5443 17.0308 35.2569C12.9665 34.9187 10.295 32.653 11.3457 30.4296C11.9158 29.2291 13.8462 28.0793 15.8824 27.7412C16.2163 27.6905 16.5502 27.6313 16.6154 27.6144C16.6805 27.5975 17.4136 27.5975 18.2443 27.6144C19.3765 27.6397 19.9222 27.6905 20.4434 27.8088Z"/>
      <path d="M12.364 14.5442C11.859 14.7133 11.5169 14.9331 11.0608 15.3896C10.6617 15.77 10.6291 16.2181 10.9631 16.4886C11.2726 16.7423 11.5658 16.7084 11.9404 16.3787C12.4128 15.9645 12.7793 15.7954 13.2355 15.7954C13.6916 15.787 14.0418 15.9476 14.5305 16.3787C14.9051 16.7084 15.1983 16.7423 15.5079 16.4886C15.6707 16.3534 15.7196 16.2435 15.7196 15.9898C15.7196 15.7278 15.6626 15.6094 15.3775 15.322C14.5712 14.5104 13.3739 14.1976 12.364 14.5442Z"/>
      <path d="M21.8606 14.5356C21.3393 14.73 20.6714 15.1696 20.4026 15.4993C20.142 15.8206 20.1339 16.1841 20.4026 16.4547C20.6714 16.7421 20.9972 16.7252 21.3882 16.4039C22.3492 15.6093 23.066 15.5839 23.9538 16.3194C24.1818 16.5138 24.4425 16.666 24.5239 16.666C24.923 16.666 25.2488 16.3109 25.2488 15.8882C25.2488 15.6177 24.5728 14.9921 23.9619 14.6962C23.2859 14.3665 22.4796 14.3073 21.8606 14.5356Z"/>
      <path d="M13.5448 30.1846C13.3086 30.4129 13.2272 30.7426 13.3493 31.0047C13.4389 31.216 13.5774 31.3006 14.1394 31.4528C14.3919 31.5204 14.4978 31.6049 14.5874 31.8163C14.7014 32.0953 14.7095 32.0953 15.3367 32.1206L15.9638 32.146V31.9093C15.9557 31.5711 15.7683 31.0808 15.524 30.7426C15.2389 30.3537 14.7421 30.1001 14.1801 30.0494C13.7973 30.0156 13.6996 30.0325 13.5448 30.1846Z"/>
      <path d="M21.3233 30.125C20.916 30.2349 20.3296 30.7844 20.1667 31.2156C20.0934 31.41 20.0201 31.7567 20.012 31.9849C19.9957 32.3484 20.0282 32.433 20.2237 32.6105C20.7043 33.0332 21.3396 32.7035 21.3396 32.0272C21.3396 31.6975 21.5839 31.4692 22.0156 31.3847C22.4717 31.3001 22.6346 31.1141 22.6427 30.683C22.6427 30.1166 22.1377 29.8967 21.3233 30.125Z"/>
   </symbol>

   <symbol id="weight" viewBox="0 0 36 36" xmlns="http://www.w3.org/2000/svg">
      <path d="M15.9495 0.61517C11.4785 1.27821 7.79691 3.76058 6.4423 7.01111C6.01016 8.03802 5.89381 8.66872 5.89381 9.90586C5.90212 10.8196 5.93536 11.1592 6.07664 11.6524C6.36751 12.6227 6.57527 13.116 7.00742 13.8113L7.40632 14.4582L6.95755 15.0081C3.40897 19.423 3.01837 25.6329 5.97691 30.5249C7.08221 32.3604 8.88559 34.1635 10.6474 35.2147L11.171 35.522L18.3346 35.4654L25.5066 35.4007L25.8473 35.2147C27.0357 34.5436 28.7144 33.0477 29.6535 31.8348C31.0663 29.9912 31.9888 27.8404 32.3794 25.5116C32.5123 24.6788 32.5123 22.2126 32.3711 21.4283C31.9472 19.0106 31.0414 16.9406 29.612 15.1051C29.3377 14.7574 29.1217 14.4663 29.1217 14.442C29.1217 14.4259 29.2712 14.1752 29.4458 13.8922C29.853 13.2453 30.2186 12.4125 30.4181 11.6848C30.6425 10.8762 30.6425 8.8547 30.4181 8.04611C29.6203 5.17562 27.2269 2.78219 23.8445 1.46419C22.8971 1.09224 21.2765 0.69603 20.2294 0.566654C19.2571 0.453453 16.8554 0.477711 15.9495 0.61517ZM21.0106 1.93317C25.4484 2.79836 28.6978 5.51522 29.2962 8.86278C29.4291 9.61477 29.346 10.8923 29.1217 11.6039C28.8973 12.2993 28.4818 13.116 27.9914 13.8113C27.792 14.0944 27.6258 14.4178 27.6258 14.5229C27.6258 14.628 27.8003 14.9029 28.0496 15.1779C30.1272 17.4823 31.2242 20.369 31.2242 23.4902C31.2159 27.0399 29.853 30.1529 27.2269 32.5949C26.7781 33.0153 26.1382 33.5409 25.7975 33.7673L25.1742 34.1878L18.3014 34.2121L11.4369 34.2444L10.905 33.9048C8.977 32.6515 7.24011 30.5815 6.27609 28.3821C5.06276 25.6006 4.9381 22.3743 5.92705 19.4796C6.45061 17.9756 7.14869 16.7465 8.21244 15.4528C8.64458 14.9353 8.84404 14.628 8.84404 14.4825C8.84404 14.3612 8.62796 13.965 8.34541 13.5526C7.34815 12.1052 6.94093 10.4961 7.18194 8.97598C7.43125 7.43966 8.12933 6.17826 9.41746 4.92495C11.0962 3.29969 13.4397 2.22426 16.1905 1.81997C17.3291 1.65017 19.8471 1.71485 21.0106 1.93317Z"/>
      <path d="M16.3233 3.35611C12.916 3.91403 10.2484 5.80613 9.37576 8.2885C9.17631 8.84643 9.14307 9.06475 9.14307 9.86525C9.14307 10.6658 9.17631 10.8841 9.37576 11.442C9.50042 11.7978 9.73311 12.291 9.89101 12.5417C10.3232 13.2371 10.5143 13.2613 11.3703 12.7438C12.6501 11.9595 14.1211 11.3854 15.6502 11.07C16.6807 10.8598 18.6586 10.779 19.7805 10.9083C21.534 11.1105 23.4371 11.7412 24.9579 12.6387C25.3901 12.8894 25.8306 13.0996 25.9386 13.0996C26.5702 13.0996 27.3763 11.2803 27.3763 9.86525C27.3763 6.71984 24.3679 4.02724 20.1046 3.35611C19.1988 3.21056 17.1959 3.21056 16.3233 3.35611ZM20.437 4.64985C21.8664 4.95711 23.1795 5.5393 24.1685 6.30746C25.4981 7.33437 26.2128 8.76557 26.0965 10.1483C26.0549 10.6981 25.8472 11.442 25.7225 11.5229C25.6893 11.539 25.2239 11.345 24.692 11.0862C23.5867 10.5526 22.3318 10.124 21.0603 9.84908C20.2874 9.68736 19.9633 9.6631 18.2348 9.67119C16.5311 9.67119 16.1737 9.69545 15.4341 9.84908C14.1543 10.124 13.157 10.4636 11.9271 11.0458C10.6888 11.6361 10.7553 11.6441 10.5309 10.9164C10.2401 9.97037 10.4229 8.71705 10.988 7.771C11.2872 7.26968 12.1099 6.43683 12.7083 6.02445C13.8468 5.24012 14.8441 4.88434 16.9882 4.49622C17.4286 4.41536 19.8719 4.52856 20.437 4.64985Z"/>
      <path d="M19.0827 15.0806C18.85 15.3717 18.85 15.6466 19.091 15.8811C19.2489 16.0347 19.4068 16.0751 19.9802 16.1156C21.0938 16.1964 22.1576 16.5199 23.1133 17.0697C23.7947 17.474 24.8335 18.4524 25.2989 19.1559C25.9887 20.1666 26.4624 21.614 26.4624 22.6813C26.4624 23.0533 26.4956 23.1665 26.6702 23.3282C26.9361 23.595 27.2851 23.595 27.5428 23.3282C27.7256 23.1422 27.7339 23.0937 27.684 22.3013C27.4513 18.3877 24.1022 15.121 20.0966 14.9027L19.2655 14.8542L19.0827 15.0806Z"/>
   </symbol>
   
   <symbol id="ice-crema" viewBox="0 0 36 36" xmlns="http://www.w3.org/2000/svg">
      <path d="M18.1219 0.120502C18.2123 0.361507 18.393 1.52887 18.393 1.89038C18.393 2.78661 18.0616 3.62259 17.4516 4.27782C16.947 4.82008 16.4424 5.12134 15.2298 5.61088C13.8817 6.16067 13.3244 6.49205 12.6918 7.11716C12.0516 7.75732 11.675 8.45774 11.5395 9.27866C11.3888 10.1749 11.5395 10.8075 11.9989 11.169L12.2324 11.3498L11.8633 11.5833C11.1177 12.0728 9.76206 13.2251 9.52859 13.5791C9.07671 14.2569 9.1219 14.8895 9.63403 15.1456L9.87504 15.2661L9.60391 15.5222C9.19721 15.9063 9.11437 16.1699 9.17462 16.8628C9.21227 17.3222 9.19721 17.5707 9.09177 17.9473C8.96374 18.4368 8.96374 18.4444 9.12943 18.7908C9.29512 19.1297 9.76206 19.559 10.1838 19.7397C10.3872 19.8301 10.3947 19.8603 10.4399 20.5531C10.4625 20.9523 10.5001 22.2251 10.5303 23.3849C10.5529 24.5448 10.6056 25.6067 10.6508 25.7347C10.6884 25.8703 10.8315 26.051 10.9596 26.1414C11.3964 26.4427 11.6976 26.7665 11.8934 27.1431C12.1119 27.5724 12.3529 28.6268 13.0834 32.272L13.5955 34.8326L13.9119 35.1339C14.5144 35.7289 15.6667 36 17.5646 36C19.47 36 20.6073 35.7364 21.2098 35.1414L21.5336 34.8326L22.0006 32.4603C23.0324 27.2711 23.1227 26.9849 23.9286 26.3448C24.1771 26.1414 24.4181 25.8929 24.4633 25.7799C24.516 25.6519 24.5688 24.6653 24.6064 23.1741C24.6365 21.8485 24.6817 20.5381 24.7119 20.2594L24.757 19.7548L25.2466 19.3858C25.8642 18.9113 26.1052 18.482 26.1052 17.8192C26.0976 17.036 25.5855 16.1774 24.6516 15.4092L24.2073 15.0477L24.4257 14.7389C25.337 13.4812 24.7646 11.7414 23.07 10.5816L22.5579 10.2276L22.7462 10.0318C23.5821 9.13556 23.7177 6.46193 23.0173 4.60167C22.5955 3.49456 21.6315 2.28954 20.4491 1.40084C19.8692 0.964016 18.2725 0 18.1294 0C18.0993 0 18.0993 0.0527191 18.1219 0.120502ZM20.2909 2.74895C20.6901 3.14059 21.1721 3.67531 21.3604 3.94644C22.4826 5.51297 22.7688 7.47866 22.0909 8.92469C21.8198 9.51213 21.0064 10.3858 20.2533 10.9054C19.101 11.7038 16.5102 13.0444 14.7027 13.7824C11.7955 14.9649 10.1085 15.1908 9.91269 14.4151C9.83738 14.1213 10.0558 13.8879 10.9821 13.2703C11.8181 12.6979 15.5688 9.9113 15.6365 9.79833C15.6591 9.7682 15.275 9.94142 14.793 10.1824C13.1587 11.0109 12.383 10.8527 12.4206 9.70042C12.4432 8.86444 13.0457 7.91548 13.8817 7.37322C14.0926 7.23766 14.7478 6.9364 15.3503 6.6954C17.3311 5.89707 17.9336 5.49038 18.6039 4.4887C19.0031 3.89372 19.4399 2.79414 19.47 2.3272C19.4775 2.16151 19.5077 2.03347 19.5303 2.03347C19.5529 2.03347 19.8918 2.35732 20.2909 2.74895ZM22.347 11.3046C22.8968 11.6134 23.4692 12.1406 23.7177 12.5548C24.1545 13.3004 23.9286 14.046 22.9872 14.995C21.9629 16.0343 20.2156 17.0285 18.2951 17.6611C16.5252 18.241 14.8307 18.5121 12.4056 18.595L10.8993 18.6477L11.8784 18.708C13.1437 18.7908 15.5914 18.7155 16.5403 18.5649C19.0633 18.1657 21.2098 17.3674 22.7462 16.2678C23.0926 16.0192 23.4541 15.8159 23.552 15.8159C23.8006 15.8159 24.8851 16.8552 25.1035 17.292C25.224 17.5406 25.2541 17.7213 25.2315 17.9623C25.1185 18.964 23.8985 19.4987 20.9537 19.8527C17.3537 20.282 12.6466 19.8603 10.6357 18.9339C9.68675 18.4971 9.52859 18.2485 9.7696 17.5858C9.84491 17.3749 9.85997 17.1264 9.82985 16.7724C9.79219 16.3054 9.79972 16.2452 9.96541 16.072C10.342 15.6653 10.9746 15.4318 13.2943 14.8444C14.1077 14.6335 15.2148 14.3021 15.742 14.1063C17.0223 13.6393 19.4248 12.4268 20.5395 11.6812C21.5863 10.9883 21.737 10.9582 22.347 11.3046ZM12.3453 20.523C13.9269 20.9824 15.3278 21.118 17.9336 21.0653C19.8918 21.0276 21.0968 20.9071 22.8365 20.5983C23.1905 20.5381 23.4993 20.4854 23.537 20.4854C23.6198 20.4854 23.5972 23.3774 23.5068 24.1381C23.4089 24.9439 23.1905 25.569 22.957 25.7197C22.716 25.8778 21.511 26.0435 19.8993 26.1339C16.593 26.3146 13.1964 26.1339 12.142 25.7121C11.5696 25.4787 11.5093 25.1774 11.5018 22.3833C11.5018 20.523 11.5169 20.2669 11.6148 20.3046C11.675 20.3272 12.0064 20.4251 12.3453 20.523ZM14.1303 26.9247C14.6725 26.9925 15.26 27.0603 15.4407 27.0828L15.7646 27.1205L15.4784 27.4368C15.1093 27.836 14.5445 28.6343 14.3411 29.041C14.1077 29.5079 14.0324 29.5381 13.6859 29.3498L13.3922 29.1841L13.2265 28.1598C13.1361 27.6025 13.0382 27.0678 13.0156 26.9774C12.9478 26.7816 12.8801 26.7816 14.1303 26.9247ZM22.1587 26.8418C22.1587 26.8569 22.1211 27.0527 22.0834 27.2711C22.0382 27.4971 21.8499 28.7247 21.6616 30.005C21.2775 32.6787 21.0215 33.9364 20.788 34.3582C20.4642 34.923 19.6884 35.2544 18.4307 35.3598C17.9411 35.3975 16.465 35.2996 16.3821 35.2243C16.3219 35.1565 17.6173 33.5523 17.8206 33.4469C18.0089 33.3414 18.0616 33.3565 18.7018 33.6879C19.4474 34.0795 19.824 34.1397 19.824 33.8912C19.824 33.6427 19.6282 33.4017 19.1462 33.0703C18.7018 32.754 18.5437 32.5732 18.5437 32.3623C18.5437 32.3021 18.7621 31.9632 19.0257 31.6092C19.2893 31.2552 19.6734 30.6904 19.8692 30.3515L20.2382 29.7414L20.5771 29.7866C21.2625 29.8845 21.4432 29.877 21.4206 29.7264C21.4056 29.651 21.2775 29.4326 21.1344 29.2519C20.9914 29.0636 20.8784 28.8753 20.8784 28.8377C20.8784 28.6946 21.5788 27.3766 21.8047 27.0979C22.0006 26.8569 22.1587 26.7364 22.1587 26.8418ZM17.4516 27.4444C17.8282 27.6929 19.2441 28.9205 19.3344 29.0711C19.3721 29.1389 17.9185 31.4134 17.6324 31.7372C17.6022 31.7749 17.4441 31.6996 17.2859 31.5791C17.1278 31.451 16.5403 31.0444 15.9755 30.6753L14.9587 30.005L15.5688 28.9732C16.6533 27.1582 16.6307 27.1883 16.8642 27.1883C16.9847 27.1883 17.2483 27.3013 17.4516 27.4444ZM20.306 27.7155C20.0424 28.0393 19.824 28.2427 19.7336 28.2427C19.5378 28.2427 19.2215 28.0695 18.6868 27.6778L18.2424 27.354L19.1311 27.3013C19.6131 27.2787 20.0801 27.2485 20.1629 27.2335C20.7654 27.1356 20.7654 27.1431 20.306 27.7155ZM14.6123 31.3381C15.3052 31.6092 16.4801 32.2494 16.819 32.5356C17.06 32.7314 17.06 32.7464 16.9621 32.9874C16.9018 33.123 16.6985 33.4845 16.4951 33.7933C16.2993 34.0946 16.0734 34.4711 15.9905 34.6293C15.7495 35.0962 15.6742 35.1339 15.1771 34.9983C14.6424 34.8402 14.3562 34.569 14.2056 34.0795C14.0022 33.3941 13.6784 31.4586 13.716 31.1573C13.7311 31.0444 14.0474 31.1121 14.6123 31.3381Z"/>
   </symbol>

   <symbol id="github" viewBox="0 0 20 20" xmlns="http://www.w3.org/2000/svg">
      <path d="M10 0C4.50745 0 0 4.50745 0 10C0 14.687 3.28888 18.9447 7.65625 20V16.6916C7.22351 16.7863 6.82526 16.7891 6.38474 16.6592C5.79376 16.4848 5.31357 16.0912 4.95712 15.4909C4.72992 15.1076 4.32724 14.6919 3.90717 14.7224L3.80417 13.5551C4.71252 13.4773 5.49835 14.1086 5.96481 14.8923C6.17203 15.2408 6.41052 15.4451 6.71661 15.5354C7.01248 15.6226 7.33017 15.5807 7.70035 15.45C7.79327 14.7089 8.13278 14.4315 8.38928 14.0408V14.0402C5.78461 13.6517 4.74655 12.2699 4.33456 11.1792C3.7886 9.73099 4.08157 7.92175 5.047 6.77841C5.06577 6.75613 5.09964 6.69785 5.08652 6.6571C4.64386 5.31998 5.18326 4.21387 5.20309 4.09653C5.71396 4.24759 5.79697 3.94455 7.42218 4.93195L7.70309 5.10071C7.82059 5.17075 7.78366 5.13077 7.90115 5.12192C8.57971 4.93759 9.29504 4.83582 9.99985 4.82666C10.71 4.83582 11.4207 4.93759 12.1274 5.12939L12.2183 5.13855C12.2104 5.13733 12.243 5.13275 12.2978 5.1001C14.328 3.87039 14.2551 4.27231 14.7995 4.09531C14.8192 4.2128 15.3514 5.33691 14.9135 6.6571C14.8544 6.83899 16.6736 8.50479 15.6653 11.1787C15.2533 12.2699 14.2154 13.6517 11.6107 14.0402V14.0408C11.9446 14.5497 12.3457 14.8204 12.3436 15.8702V20C16.7111 18.9447 19.9998 14.687 19.9998 10C20 4.50745 15.4926 0 10 0V0Z"/>
   </symbol>

   <symbol id="telegram" viewBox="0 0 22 16" xmlns="http://www.w3.org/2000/svg">
      <path d="M8.67276 10.5238L8.3353 14.9538C8.81812 14.9538 9.02722 14.7602 9.27798 14.5278L11.5416 12.5088L16.232 15.7146C17.0922 16.162 17.6983 15.9264 17.9303 14.976L21.0091 1.51162L21.01 1.51083C21.2828 0.324011 20.5501 -0.140087 19.712 0.151065L1.61504 6.61749C0.379963 7.06493 0.398663 7.70753 1.40509 7.99868L6.03175 9.34178L16.7786 3.06576C17.2843 2.75319 17.7442 2.92613 17.3659 3.2387L8.67276 10.5238Z"/>
   </symbol>

   <symbol id="facebook" viewBox="0 0 11 22" xmlns="http://www.w3.org/2000/svg">
      <path d="M9.72348 10.9804H6.95018V21.2001H2.74839V10.9804H0.75V7.38881H2.74839V5.06464C2.74839 3.40261 3.53328 0.800049 6.98758 0.800049L10.1 0.813146V4.2994H7.84174C7.47132 4.2994 6.95046 4.48555 6.95046 5.27839V7.39216H10.0906L9.72348 10.9804Z"/>
   </symbol>

   <symbol id="arrow-slider" viewBox="0 0 477.175 477.175" xmlns="http://www.w3.org/2000/svg">
      <path d="M145.188,238.575l215.5-215.5c5.3-5.3,5.3-13.8,0-19.1s-13.8-5.3-19.1,0l-225.1,225.1c-5.3,5.3-5.3,13.8,0,19.1l225.1,225c2.6,2.6,6.1,4,9.5,4s6.9-1.3,9.5-4c5.3-5.3,5.3-13.8,0-19.1L145.188,238.575z" />
   </symbol>

   <symbol id="close" viewBox="0 0 12 12"  xmlns="http://www.w3.org/2000/svg">
      <path d="M6.7831 5.99997L11.3887 1.39441C11.4797 1.28813 11.5272 1.15142 11.5218 1.0116C11.5164 0.871784 11.4585 0.739152 11.3595 0.64021C11.2606 0.541269 11.128 0.483306 10.9881 0.477905C10.8483 0.472505 10.7116 0.520064 10.6053 0.611079L5.99977 5.21663L1.39421 0.605523C1.2896 0.50091 1.14771 0.442139 0.999768 0.442139C0.851823 0.442139 0.709937 0.50091 0.605324 0.605523C0.50071 0.710136 0.441939 0.852022 0.441939 0.999967C0.441939 1.14791 0.50071 1.2898 0.605324 1.39441L5.21643 5.99997L0.605324 10.6055C0.547167 10.6553 0.499934 10.7166 0.466587 10.7855C0.433241 10.8545 0.414502 10.9295 0.411547 11.006C0.408592 11.0826 0.421483 11.1589 0.449414 11.2301C0.477344 11.3014 0.51971 11.3662 0.573851 11.4203C0.627993 11.4745 0.692741 11.5168 0.764033 11.5448C0.835325 11.5727 0.91162 11.5856 0.988131 11.5826C1.06464 11.5797 1.13972 11.5609 1.20864 11.5276C1.27757 11.4942 1.33885 11.447 1.38866 11.3889L5.99977 6.7833L10.6053 11.3889C10.7116 11.4799 10.8483 11.5274 10.9881 11.522C11.128 11.5166 11.2606 11.4587 11.3595 11.3597C11.4585 11.2608 11.5164 11.1282 11.5218 10.9883C11.5272 10.8485 11.4797 10.7118 11.3887 10.6055L6.7831 5.99997Z"/>
   </symbol>

</svg>