<svg width="78" height="78" viewBox="0 0 78 78" fill="none" xmlns="http://www.w3.org/2000/svg">
<path fill-rule="evenodd" clip-rule="evenodd" d="M78 39C78 60.5391 60.5391 78 39 78C17.4609 78 0 60.5391 0 39C0 17.4609 17.4609 0 39 0C60.5391 0 78 17.4609 78 39ZM49.0957 52.5115C48.4378 52.4231 47.8302 52.3789 47.2728 52.3789C44.0995 52.3789 42.5128 53.0766 42.5128 54.472C42.5128 55.2229 42.8281 55.8037 43.4585 56.2145C44.0959 56.6182 45.0274 56.8201 46.2528 56.8201C47.1071 56.8201 47.9461 56.7725 48.7698 56.6772C49.1344 56.635 49.496 56.5835 49.8546 56.5226L49.929 59.8694C48.5832 60.2236 47.1169 60.4007 45.5303 60.4007C43.9437 60.4007 42.612 60.2767 41.5354 60.0288C40.4587 59.788 39.6158 59.5188 39.0067 59.2213C38.3975 58.9238 37.8592 58.5768 37.3917 58.1801C36.3859 57.3301 35.8865 56.1968 35.8936 54.7802C35.8936 53.9018 36.0671 53.1085 36.4142 52.4002C37.0517 51.104 38.1638 50.1548 39.7504 49.5527C41.337 48.9436 43.0866 48.639 44.9991 48.639C46.9115 48.639 48.7248 48.8515 50.439 49.2765L50.1733 52.6871C49.8003 52.6164 49.4411 52.5578 49.0957 52.5115ZM39.3623 48.5363C41.0875 47.8743 42.9706 47.551 44.9991 47.551C46.9925 47.551 48.8942 47.7726 50.7008 48.2205L51.5952 48.4422L51.4388 50.4505C51.6391 50.1967 51.8582 49.9627 52.097 49.75C53.8035 48.2285 56.1847 47.551 59.0684 47.551C60.5075 47.551 61.8848 47.8271 63.1908 48.3812L63.201 48.3855C64.5746 48.9849 65.6162 49.9184 66.2397 51.1989C66.6021 51.9341 66.7757 52.7339 66.7757 53.5796V53.6191L66.5716 56.4256L66.4503 56.425L66.2048 59.7069L65.8137 60.0033C65.1745 60.4879 64.192 60.8168 63.0453 61.0694C61.8482 61.3403 60.6742 61.478 59.5253 61.478C58.4397 61.478 57.4921 61.4273 56.6921 61.3196C55.8793 61.2102 55.0771 61.0151 54.2864 60.736L54.2775 60.7329C53.4686 60.4395 52.7466 60.0605 52.127 59.5852L52.1204 59.5801L52.1139 59.575C51.6757 59.2281 51.2996 58.8176 50.9835 58.3505L51.0358 60.7032L50.2059 60.9216C48.7581 61.3026 47.1976 61.4887 45.5303 61.4887C43.8953 61.4887 42.4768 61.3617 41.2943 61.0898C40.181 60.8406 39.2465 60.5493 38.5292 60.199C37.8475 59.866 37.2318 59.4711 36.6886 59.0104C35.4175 57.9358 34.7977 56.4869 34.8056 54.7774C34.806 53.7532 35.0095 52.7942 35.4372 51.9215L35.4379 51.92C36.2176 50.3346 37.5671 49.218 39.3623 48.5363ZM49.9978 55.3948C49.9858 55.2174 49.98 55.0372 49.98 54.8545C49.98 54.4858 50.0039 54.1245 50.0524 53.7715L49.9707 53.756C48.9352 53.5597 48.0382 53.4669 47.2728 53.4669C45.7323 53.4669 44.7248 53.6414 44.1408 53.8982C43.8612 54.0211 43.7337 54.1393 43.6774 54.2136C43.6317 54.2738 43.6008 54.3447 43.6008 54.472C43.6008 54.8517 43.7278 55.0895 44.0465 55.2991C44.4336 55.5418 45.123 55.7321 46.2528 55.7321C47.4267 55.7321 48.5663 55.6377 49.6726 55.45L49.9978 55.3948ZM51.1229 53.9744C51.0863 54.2594 51.068 54.5528 51.068 54.8545C51.068 55.747 51.2273 56.5155 51.5461 57.1601C51.8648 57.7976 52.2792 58.3182 52.7892 58.722C53.3063 59.1186 53.926 59.448 54.6485 59.7101C55.371 59.9651 56.1006 60.1422 56.8372 60.2413C57.5739 60.3405 58.4699 60.3901 59.5253 60.3901C60.5878 60.3901 61.6822 60.2626 62.8084 60.0076C63.9346 59.7597 64.7173 59.4692 65.1565 59.1363L65.3583 56.4376H64.7846C64.6043 56.5127 64.4266 56.5831 64.2515 56.649C62.9885 57.1243 61.8593 57.362 60.864 57.362C59.7307 57.362 58.8347 57.1778 58.176 56.8095C57.9522 56.6831 57.7569 56.5403 57.59 56.3813C57.2706 56.0772 57.0551 55.7134 56.9435 55.2901L65.5602 55.3326L65.6877 53.5796C65.6877 52.8854 65.546 52.2514 65.2627 51.6777C64.7669 50.6577 63.9346 49.8927 62.7659 49.3827C61.5972 48.8869 60.3647 48.639 59.0684 48.639C56.3414 48.639 54.2589 49.28 52.821 50.5621C52.304 51.0225 51.8825 51.6281 51.5567 52.3789C51.4006 52.7386 51.2819 53.1154 51.2006 53.5092C51.1691 53.6617 51.1432 53.8168 51.1229 53.9744ZM60.524 51.9433C60.6212 52.0315 60.7032 52.1394 60.7701 52.2672C60.9129 52.54 60.9867 52.903 60.9915 53.3564L57.156 53.3352C57.2251 52.9149 57.3831 52.5531 57.63 52.2498C57.6868 52.18 57.7484 52.1132 57.8147 52.0496C58.1689 51.7025 58.6328 51.529 59.2066 51.529C59.7874 51.529 60.2265 51.6671 60.524 51.9433ZM32.907 17.0381C36.8514 19.8036 42.802 24.0114 39.9285 31.6984L39.9511 31.6909C40.1932 31.9269 40.3847 32.2084 40.5142 32.5187C40.6438 32.8291 40.7088 33.1619 40.7053 33.4974C40.7053 34.1698 40.4344 34.8146 39.9521 35.29C39.4698 35.7654 38.8156 36.0325 38.1336 36.0325H38.0808V40.4038C38.0808 40.8474 37.902 41.2729 37.5837 41.5866C37.2655 41.9003 36.8339 42.0765 36.3838 42.0765H35.064L32.9145 60.439C32.8665 60.8478 32.668 61.2249 32.3566 61.499C32.0452 61.7731 31.6426 61.9249 31.2251 61.9258H22.2804C21.8633 61.9264 21.4607 61.7748 21.1502 61.5003C20.8397 61.2258 20.6432 60.8478 20.5985 60.439L18.4491 42.0765H17.1292C16.6792 42.0765 16.2475 41.9003 15.9293 41.5866C15.6111 41.2729 15.4323 40.8474 15.4323 40.4038V36.0325H15.3795C14.818 36.036 14.2708 35.8578 13.822 35.5252C13.3732 35.1925 13.0476 34.7239 12.8951 34.1912C12.7427 33.6585 12.7719 33.0912 12.9781 32.5764C13.1844 32.0616 13.5564 31.6278 14.037 31.3415C13.7052 29.7581 13.7955 28.1169 14.2991 26.5781C14.8027 25.0393 15.7024 23.6555 16.9105 22.5617C16.8283 20.872 17.3368 19.2057 18.351 17.841C18.9031 17.0825 19.5606 16.4043 20.3044 15.8263C20.3068 14.5175 20.6133 13.2267 21.2003 12.0527C21.7873 10.8788 22.6392 9.85289 23.6907 9.05377C24.7851 8.14878 26.0202 7.42334 27.3486 6.90528C27.4889 6.85511 27.6405 6.84393 27.7869 6.87294C27.9332 6.90195 28.0686 6.97004 28.1784 7.06978C28.2881 7.16952 28.3679 7.29707 28.4091 7.4385C28.4503 7.57992 28.4513 7.72979 28.412 7.87173C28.029 9.22833 28.0493 10.6648 28.4705 12.0103C28.8916 13.3559 29.6959 14.554 30.7877 15.4621C31.165 15.7605 31.5969 16.076 32.0498 16.4067C32.3302 16.6114 32.6186 16.8221 32.907 17.0381ZM20.584 17.8087C19.7512 18.5588 19.1452 19.5216 18.8335 20.5906C18.519 21.6691 18.5165 22.8127 18.8262 23.8924C20.3873 29.141 28.2838 31.0144 35.1545 31.0144H38.488C39.0002 29.7889 39.1934 28.4565 39.0498 27.1386C38.9062 25.8207 38.4305 24.5591 37.6659 23.4687C36.2681 21.3947 34.0881 19.8512 32.1409 18.4726C32.0919 18.4379 32.0431 18.4033 31.9944 18.3688C31.1346 17.789 30.3578 17.2463 29.7318 16.7184C28.8123 15.961 28.0567 15.0291 27.5099 13.978C26.9631 12.9269 26.6364 11.7781 26.5491 10.6001C26.5072 10.0855 26.5072 9.56838 26.5491 9.05377C25.8985 9.41416 25.2826 9.8322 24.7089 10.3027C23.7932 10.9861 23.0628 11.8817 22.5826 12.9101C22.1023 13.9386 21.8871 15.0679 21.9561 16.198C22.249 20.2921 26.1022 21.732 30.2011 23.2637L30.2522 23.2828C30.3709 23.3045 30.4833 23.3517 30.5814 23.421C30.6795 23.4904 30.7609 23.5802 30.8198 23.684C30.8788 23.7879 30.9138 23.9032 30.9224 24.0219C30.931 24.1406 30.9129 24.2597 30.8696 24.3707C30.8262 24.4818 30.7585 24.5821 30.6714 24.6644C30.5843 24.7468 30.4798 24.8092 30.3655 24.8473C30.2511 24.8854 30.1297 24.8982 30.0097 24.8848C29.8898 24.8713 29.7743 24.8321 29.6715 24.7697C25.8658 23.3639 21.6941 21.7887 20.584 17.8087ZM29.2718 45.578L26.7527 43.095L24.2337 45.5632L26.7527 48.0611L29.2718 45.578ZM30.4483 51.6667L32.5299 49.6148L32.6355 48.8565L30.4483 46.708L27.9293 49.1836L30.4483 51.6667ZM24.2337 52.8264L26.7527 55.3094L29.2718 52.8264L26.7527 50.3433L24.2337 52.8264ZM23.0798 51.6815L25.5988 49.1985L23.0798 46.7229L20.8926 48.8714L20.9831 49.6148L23.0798 51.6815ZM21.413 53.3245L21.9184 52.8264L21.2848 52.1945L21.413 53.3245ZM23.0798 53.9638L21.6544 55.3689L21.8278 56.878H25.9005C25.8795 56.8246 25.8619 56.77 25.8477 56.7145L23.0798 53.9638ZM31.8587 55.3689L30.4332 53.9638L27.4994 56.8557H31.6852L31.8587 55.3689ZM31.5871 52.8264L32.0924 53.3245L32.2282 52.1945L31.5871 52.8264ZM31.5871 45.5632L32.8466 46.827L33.186 43.9871L31.5871 45.5632ZM28.0349 42.084L30.4257 44.4332L32.8165 42.084H28.0349ZM20.6815 42.084L23.0723 44.4332L25.4631 42.084H20.6815ZM22.2804 60.3126H31.2251C31.2399 60.3127 31.2542 60.3075 31.2653 60.2979C31.2764 60.2883 31.2836 60.275 31.2855 60.2606L31.4891 58.4764H22.0164L22.2276 60.2606C22.2292 60.2738 22.2353 60.2862 22.2448 60.2956C22.2544 60.3051 22.2669 60.3111 22.2804 60.3126ZM35.509 34.4118H38.0808C38.2101 34.4233 38.3405 34.4081 38.4636 34.3672C38.5866 34.3263 38.6997 34.2606 38.7956 34.1742C38.8914 34.0878 38.968 33.9827 39.0204 33.8655C39.0728 33.7484 39.0998 33.6218 39.0998 33.4937C39.0998 33.3657 39.0728 33.2391 39.0204 33.1219C38.968 33.0048 38.8914 32.8996 38.7956 32.8133C38.6997 32.7269 38.5866 32.6612 38.4636 32.6202C38.3405 32.5793 38.2101 32.5641 38.0808 32.5756H35.064C29.9279 32.5756 25.7044 31.7355 22.5142 30.0926C19.1203 28.3307 17.7627 26.1153 17.2348 24.4946C16.5032 25.3917 15.9774 26.4344 15.6935 27.5509C15.4097 28.6674 15.3746 29.8312 15.5907 30.9624H17.099C17.3025 30.9817 17.4914 31.075 17.6289 31.2241C17.7663 31.3732 17.8425 31.5675 17.8425 31.769C17.8425 31.9705 17.7663 32.1647 17.6289 32.3139C17.4914 32.463 17.3025 32.5563 17.099 32.5756H15.387C15.2577 32.5641 15.1273 32.5793 15.0042 32.6202C14.8812 32.6612 14.7681 32.7269 14.6722 32.8133C14.5763 32.8996 14.4998 33.0048 14.4474 33.1219C14.395 33.2391 14.3679 33.3657 14.3679 33.4937C14.3679 33.6218 14.395 33.7484 14.4474 33.8655C14.4998 33.9827 14.5763 34.0878 14.6722 34.1742C14.7681 34.2606 14.8812 34.3263 15.0042 34.3672C15.1273 34.4081 15.2577 34.4233 15.387 34.4118H31.9793C32.1828 34.4311 32.3717 34.5244 32.5091 34.6736C32.6466 34.8227 32.7227 35.017 32.7227 35.2185C32.7227 35.42 32.6466 35.6142 32.5091 35.7633C32.3717 35.9125 32.1828 36.0058 31.9793 36.0251H17.0387V40.3964C17.0406 40.4108 17.0477 40.4241 17.0588 40.4337C17.07 40.4433 17.0843 40.4485 17.099 40.4484H36.3838C36.3986 40.4485 36.4129 40.4433 36.424 40.4337C36.4352 40.4241 36.4423 40.4108 36.4441 40.3964V36.0251H35.509C35.3949 36.0359 35.2798 36.0231 35.1711 35.9874C35.0623 35.9518 34.9623 35.8942 34.8775 35.8182C34.7927 35.7423 34.7249 35.6497 34.6786 35.5464C34.6322 35.4431 34.6082 35.3314 34.6082 35.2185C34.6082 35.1055 34.6322 34.9938 34.6786 34.8905C34.7249 34.7872 34.7927 34.6946 34.8775 34.6187C34.9623 34.5427 35.0623 34.4851 35.1711 34.4495C35.2798 34.4139 35.3949 34.401 35.509 34.4118Z" fill="#8B4817"/>
</svg>
