<svg width="490" height="343" viewBox="0 0 490 343" fill="none" xmlns="http://www.w3.org/2000/svg">
<ellipse cx="207.193" cy="32.7546" rx="5.85842" ry="6.2439" fill="#F8D24E"/>
<ellipse cx="219.886" cy="24.4294" rx="5.85842" ry="6.2439" fill="#F8D24E"/>
<ellipse cx="234.532" cy="15.0635" rx="5.85842" ry="6.2439" fill="#F8D24E"/>
<ellipse cx="248.202" cy="6.73829" rx="5.85842" ry="6.2439" fill="#F8D24E"/>
<ellipse cx="194.641" cy="57.6082" rx="5.85842" ry="6.2439" fill="#F8D24E"/>
<ellipse cx="207.335" cy="49.283" rx="5.85842" ry="6.2439" fill="#F8D24E"/>
<ellipse cx="221.98" cy="39.917" rx="5.85842" ry="6.2439" fill="#F8D24E"/>
<ellipse cx="235.65" cy="31.592" rx="5.85842" ry="6.2439" fill="#F8D24E"/>
<ellipse cx="166.325" cy="58.6489" rx="5.85842" ry="6.2439" fill="#F8D24E"/>
<ellipse cx="179.019" cy="50.3237" rx="5.85842" ry="6.2439" fill="#F8D24E"/>
<ellipse cx="193.665" cy="40.9578" rx="5.85842" ry="6.2439" fill="#F8D24E"/>
<ellipse cx="207.335" cy="32.6326" rx="5.85842" ry="6.2439" fill="#F8D24E"/>
<ellipse cx="150.703" cy="82.5837" rx="5.85842" ry="6.2439" fill="#F8D24E"/>
<ellipse cx="163.396" cy="74.2586" rx="5.85842" ry="6.2439" fill="#F8D24E"/>
<ellipse cx="178.042" cy="64.8926" rx="5.85842" ry="6.2439" fill="#F8D24E"/>
<ellipse cx="191.712" cy="56.5676" rx="5.85842" ry="6.2439" fill="#F8D24E"/>
<ellipse cx="138.986" cy="104.438" rx="5.85842" ry="6.2439" fill="#F8D24E"/>
<ellipse cx="151.679" cy="96.1123" rx="5.85842" ry="6.2439" fill="#F8D24E"/>
<ellipse cx="166.325" cy="86.7466" rx="5.85842" ry="6.2439" fill="#F8D24E"/>
<ellipse cx="179.995" cy="78.4212" rx="5.85842" ry="6.2439" fill="#F8D24E"/>
<ellipse cx="5.85842" cy="6.2439" rx="5.85842" ry="6.2439" transform="matrix(0.999999 0.00156002 -0.00137335 0.999999 124.358 120.047)" fill="#F8D24E"/>
<ellipse cx="5.85842" cy="6.2439" rx="5.85842" ry="6.2439" transform="matrix(0.999999 0.00156002 -0.00137335 0.999999 137.062 111.742)" fill="#F8D24E"/>
<ellipse cx="5.85842" cy="6.2439" rx="5.85842" ry="6.2439" transform="matrix(0.999999 0.00156002 -0.00137335 0.999999 151.722 102.399)" fill="#F8D24E"/>
<ellipse cx="5.85842" cy="6.2439" rx="5.85842" ry="6.2439" transform="matrix(0.999999 0.00156002 -0.00137335 0.999999 165.403 94.095)" fill="#F8D24E"/>
<ellipse cx="5.85842" cy="6.2439" rx="5.85842" ry="6.2439" transform="matrix(0.999999 0.00156002 -0.00137335 0.999999 0.37793 157.553)" fill="#F8D24E"/>
<ellipse cx="5.85842" cy="6.2439" rx="5.85842" ry="6.2439" transform="matrix(0.999999 0.00156002 -0.00137335 0.999999 14.0596 149.25)" fill="#F8D24E"/>
<ellipse cx="5.85842" cy="6.2439" rx="5.85842" ry="6.2439" transform="matrix(0.999999 0.00156002 -0.00137335 0.999999 85.3013 129.413)" fill="#F8D24E"/>
<ellipse cx="5.85842" cy="6.2439" rx="5.85842" ry="6.2439" transform="matrix(0.999999 0.00156002 -0.00137335 0.999999 98.0059 121.108)" fill="#F8D24E"/>
<ellipse cx="5.85842" cy="6.2439" rx="5.85842" ry="6.2439" transform="matrix(0.999999 0.00156002 -0.00137335 0.999999 112.665 111.765)" fill="#F8D24E"/>
<ellipse cx="5.85842" cy="6.2439" rx="5.85842" ry="6.2439" transform="matrix(0.999999 0.00156002 -0.00137335 0.999999 126.346 103.461)" fill="#F8D24E"/>
<ellipse cx="7.17141" cy="145.023" rx="5.85842" ry="6.2439" fill="#F8D24E"/>
<ellipse cx="20.8413" cy="136.698" rx="5.85842" ry="6.2439" fill="#F8D24E"/>
<ellipse cx="39.3926" cy="127.332" rx="5.85842" ry="6.2439" fill="#F8D24E"/>
<ellipse cx="52.0864" cy="119.007" rx="5.85842" ry="6.2439" fill="#F8D24E"/>
<ellipse cx="66.7324" cy="109.641" rx="5.85842" ry="6.2439" fill="#F8D24E"/>
<ellipse cx="80.4019" cy="101.315" rx="5.85842" ry="6.2439" fill="#F8D24E"/>
<ellipse cx="64.7793" cy="139.82" rx="5.85842" ry="6.2439" fill="#F8D24E"/>
<ellipse cx="77.4727" cy="131.495" rx="5.85842" ry="6.2439" fill="#F8D24E"/>
<ellipse cx="92.1192" cy="122.129" rx="5.85842" ry="6.2439" fill="#F8D24E"/>
<ellipse cx="105.789" cy="113.803" rx="5.85842" ry="6.2439" fill="#F8D24E"/>
<ellipse cx="66.7324" cy="123.169" rx="5.85842" ry="6.2439" fill="#F8D24E"/>
<ellipse cx="79.4258" cy="114.844" rx="5.85842" ry="6.2439" fill="#F8D24E"/>
<ellipse cx="94.0718" cy="105.478" rx="5.85842" ry="6.2439" fill="#F8D24E"/>
<ellipse cx="107.741" cy="97.1528" rx="5.85842" ry="6.2439" fill="#F8D24E"/>
<ellipse cx="13.0298" cy="129.413" rx="5.85842" ry="6.2439" fill="#F8D24E"/>
<ellipse cx="25.7232" cy="121.088" rx="5.85842" ry="6.2439" fill="#F8D24E"/>
<ellipse cx="40.3697" cy="111.722" rx="5.85842" ry="6.2439" fill="#F8D24E"/>
<ellipse cx="54.0386" cy="103.397" rx="5.85842" ry="6.2439" fill="#F8D24E"/>
<ellipse cx="213.193" cy="59.6895" rx="5.85842" ry="6.2439" fill="#F8D24E"/>
<ellipse cx="225.886" cy="51.3643" rx="5.85842" ry="6.2439" fill="#F8D24E"/>
<ellipse cx="240.532" cy="41.9983" rx="5.85842" ry="6.2439" fill="#F8D24E"/>
<ellipse cx="254.202" cy="33.6733" rx="5.85842" ry="6.2439" fill="#F8D24E"/>
<ellipse cx="211.24" cy="102.356" rx="5.85842" ry="6.2439" fill="#F8D24E"/>
<ellipse cx="223.933" cy="94.031" rx="5.85842" ry="6.2439" fill="#F8D24E"/>
<ellipse cx="238.58" cy="84.665" rx="5.85842" ry="6.2439" fill="#F8D24E"/>
<ellipse cx="252.249" cy="76.3396" rx="5.85842" ry="6.2439" fill="#F8D24E"/>
<ellipse cx="214.169" cy="80.5024" rx="5.85842" ry="6.2439" fill="#F8D24E"/>
<ellipse cx="226.862" cy="72.1773" rx="5.85842" ry="6.2439" fill="#F8D24E"/>
<ellipse cx="241.509" cy="62.8113" rx="5.85842" ry="6.2439" fill="#F8D24E"/>
<ellipse cx="255.178" cy="54.4863" rx="5.85842" ry="6.2439" fill="#F8D24E"/>
<ellipse cx="212.216" cy="123.169" rx="5.85842" ry="6.2439" fill="#F8D24E"/>
<ellipse cx="224.91" cy="114.844" rx="5.85842" ry="6.2439" fill="#F8D24E"/>
<ellipse cx="239.556" cy="105.478" rx="5.85842" ry="6.2439" fill="#F8D24E"/>
<ellipse cx="253.225" cy="97.1528" rx="5.85842" ry="6.2439" fill="#F8D24E"/>
<ellipse cx="218.075" cy="137.739" rx="5.85842" ry="6.2439" fill="#F8D24E"/>
<ellipse cx="230.768" cy="129.413" rx="5.85842" ry="6.2439" fill="#F8D24E"/>
<ellipse cx="245.414" cy="120.047" rx="5.85842" ry="6.2439" fill="#F8D24E"/>
<ellipse cx="259.084" cy="111.722" rx="5.85842" ry="6.2439" fill="#F8D24E"/>
<ellipse cx="230.768" cy="149.185" rx="5.85842" ry="6.2439" fill="#F8D24E"/>
<ellipse cx="243.461" cy="140.86" rx="5.85842" ry="6.2439" fill="#F8D24E"/>
<ellipse cx="258.107" cy="131.494" rx="5.85842" ry="6.2439" fill="#F8D24E"/>
<ellipse cx="271.777" cy="123.169" rx="5.85842" ry="6.2439" fill="#F8D24E"/>
<ellipse cx="247.367" cy="158.551" rx="5.85842" ry="6.2439" fill="#F8D24E"/>
<ellipse cx="260.06" cy="150.226" rx="5.85842" ry="6.2439" fill="#F8D24E"/>
<ellipse cx="274.706" cy="140.86" rx="5.85842" ry="6.2439" fill="#F8D24E"/>
<ellipse cx="288.376" cy="132.535" rx="5.85842" ry="6.2439" fill="#F8D24E"/>
<ellipse cx="266.895" cy="160.633" rx="5.85842" ry="6.2439" fill="#F8D24E"/>
<ellipse cx="279.588" cy="152.307" rx="5.85842" ry="6.2439" fill="#F8D24E"/>
<ellipse cx="294.234" cy="142.941" rx="5.85842" ry="6.2439" fill="#F8D24E"/>
<ellipse cx="307.904" cy="134.616" rx="5.85842" ry="6.2439" fill="#F8D24E"/>
<ellipse cx="286.423" cy="164.795" rx="5.85842" ry="6.2439" fill="#F8D24E"/>
<ellipse cx="299.117" cy="156.47" rx="5.85842" ry="6.2439" fill="#F8D24E"/>
<ellipse cx="313.763" cy="147.104" rx="5.85842" ry="6.2439" fill="#F8D24E"/>
<ellipse cx="327.433" cy="138.779" rx="5.85842" ry="6.2439" fill="#F8D24E"/>
<ellipse cx="281.542" cy="184.568" rx="5.85842" ry="6.2439" fill="#F8D24E"/>
<ellipse cx="294.234" cy="176.242" rx="5.85842" ry="6.2439" fill="#F8D24E"/>
<ellipse cx="308.88" cy="166.876" rx="5.85842" ry="6.2439" fill="#F8D24E"/>
<ellipse cx="322.55" cy="158.551" rx="5.85842" ry="6.2439" fill="#F8D24E"/>
<ellipse cx="279.588" cy="203.299" rx="5.85842" ry="6.2439" fill="#F8D24E"/>
<ellipse cx="292.282" cy="194.974" rx="5.85842" ry="6.2439" fill="#F8D24E"/>
<ellipse cx="306.928" cy="185.608" rx="5.85842" ry="6.2439" fill="#F8D24E"/>
<ellipse cx="320.597" cy="177.283" rx="5.85842" ry="6.2439" fill="#F8D24E"/>
<ellipse cx="272.753" cy="227.234" rx="5.85842" ry="6.2439" fill="#F8D24E"/>
<ellipse cx="285.447" cy="218.909" rx="5.85842" ry="6.2439" fill="#F8D24E"/>
<ellipse cx="300.093" cy="209.543" rx="5.85842" ry="6.2439" fill="#F8D24E"/>
<ellipse cx="313.763" cy="201.218" rx="5.85842" ry="6.2439" fill="#F8D24E"/>
<ellipse cx="269.824" cy="248.047" rx="5.85842" ry="6.2439" fill="#F8D24E"/>
<ellipse cx="282.517" cy="239.722" rx="5.85842" ry="6.2439" fill="#F8D24E"/>
<ellipse cx="297.163" cy="230.356" rx="5.85842" ry="6.2439" fill="#F8D24E"/>
<ellipse cx="310.833" cy="222.031" rx="5.85842" ry="6.2439" fill="#F8D24E"/>
<ellipse cx="265.918" cy="269.901" rx="5.85842" ry="6.2439" fill="#F8D24E"/>
<ellipse cx="278.612" cy="261.576" rx="5.85842" ry="6.2439" fill="#F8D24E"/>
<ellipse cx="293.258" cy="252.21" rx="5.85842" ry="6.2439" fill="#F8D24E"/>
<ellipse cx="306.928" cy="243.885" rx="5.85842" ry="6.2439" fill="#F8D24E"/>
<ellipse cx="263.965" cy="287.592" rx="5.85842" ry="6.2439" fill="#F8D24E"/>
<ellipse cx="276.659" cy="279.267" rx="5.85842" ry="6.2439" fill="#F8D24E"/>
<ellipse cx="291.305" cy="269.901" rx="5.85842" ry="6.2439" fill="#F8D24E"/>
<ellipse cx="304.975" cy="261.576" rx="5.85842" ry="6.2439" fill="#F8D24E"/>
<ellipse cx="262.013" cy="306.324" rx="5.85842" ry="6.2439" fill="#F8D24E"/>
<ellipse cx="274.707" cy="297.998" rx="5.85842" ry="6.2439" fill="#F8D24E"/>
<ellipse cx="289.353" cy="288.633" rx="5.85842" ry="6.2439" fill="#F8D24E"/>
<ellipse cx="303.022" cy="280.307" rx="5.85842" ry="6.2439" fill="#F8D24E"/>
<ellipse cx="267.871" cy="321.933" rx="5.85842" ry="6.2439" fill="#F8D24E"/>
<ellipse cx="280.564" cy="313.608" rx="5.85842" ry="6.2439" fill="#F8D24E"/>
<ellipse cx="295.21" cy="304.242" rx="5.85842" ry="6.2439" fill="#F8D24E"/>
<ellipse cx="308.88" cy="295.917" rx="5.85842" ry="6.2439" fill="#F8D24E"/>
<ellipse cx="282.518" cy="330.259" rx="5.85842" ry="6.2439" fill="#F8D24E"/>
<ellipse cx="295.211" cy="321.933" rx="5.85842" ry="6.2439" fill="#F8D24E"/>
<ellipse cx="309.857" cy="312.568" rx="5.85842" ry="6.2439" fill="#F8D24E"/>
<ellipse cx="323.526" cy="304.242" rx="5.85842" ry="6.2439" fill="#F8D24E"/>
<ellipse cx="299.117" cy="335.462" rx="5.85842" ry="6.2439" fill="#F8D24E"/>
<ellipse cx="311.81" cy="327.137" rx="5.85842" ry="6.2439" fill="#F8D24E"/>
<ellipse cx="326.456" cy="317.771" rx="5.85842" ry="6.2439" fill="#F8D24E"/>
<ellipse cx="340.126" cy="309.446" rx="5.85842" ry="6.2439" fill="#F8D24E"/>
<ellipse cx="320.597" cy="336.503" rx="5.85842" ry="6.2439" fill="#F8D24E"/>
<ellipse cx="333.291" cy="328.177" rx="5.85842" ry="6.2439" fill="#F8D24E"/>
<ellipse cx="347.937" cy="318.811" rx="5.85842" ry="6.2439" fill="#F8D24E"/>
<ellipse cx="361.606" cy="310.486" rx="5.85842" ry="6.2439" fill="#F8D24E"/>
<ellipse cx="345.984" cy="336.503" rx="5.85842" ry="6.2439" fill="#F8D24E"/>
<ellipse cx="358.677" cy="328.177" rx="5.85842" ry="6.2439" fill="#F8D24E"/>
<ellipse cx="373.323" cy="318.811" rx="5.85842" ry="6.2439" fill="#F8D24E"/>
<ellipse cx="386.993" cy="310.486" rx="5.85842" ry="6.2439" fill="#F8D24E"/>
<ellipse cx="367.464" cy="335.462" rx="5.85842" ry="6.2439" fill="#F8D24E"/>
<ellipse cx="380.157" cy="327.137" rx="5.85842" ry="6.2439" fill="#F8D24E"/>
<ellipse cx="394.804" cy="317.771" rx="5.85842" ry="6.2439" fill="#F8D24E"/>
<ellipse cx="408.473" cy="309.446" rx="5.85842" ry="6.2439" fill="#F8D24E"/>
<ellipse cx="391.875" cy="334.421" rx="5.85842" ry="6.2439" fill="#F8D24E"/>
<ellipse cx="404.568" cy="326.096" rx="5.85842" ry="6.2439" fill="#F8D24E"/>
<ellipse cx="419.213" cy="316.73" rx="5.85842" ry="6.2439" fill="#F8D24E"/>
<ellipse cx="432.883" cy="308.405" rx="5.85842" ry="6.2439" fill="#F8D24E"/>
<ellipse cx="414.332" cy="307.364" rx="5.85842" ry="6.2439" fill="#F8D24E"/>
<ellipse cx="427.025" cy="299.039" rx="5.85842" ry="6.2439" fill="#F8D24E"/>
<ellipse cx="441.671" cy="289.673" rx="5.85842" ry="6.2439" fill="#F8D24E"/>
<ellipse cx="455.341" cy="281.348" rx="5.85842" ry="6.2439" fill="#F8D24E"/>
<ellipse cx="5.86756" cy="6.23532" rx="5.86756" ry="6.23532" transform="matrix(0.986913 -0.161253 0.142374 0.989813 439.512 302.051)" fill="#F8D24E"/>
<ellipse cx="5.86756" cy="6.23532" rx="5.86756" ry="6.23532" transform="matrix(0.986913 -0.161253 0.142374 0.989813 450.875 291.772)" fill="#F8D24E"/>
<ellipse cx="5.86756" cy="6.23532" rx="5.86756" ry="6.23532" transform="matrix(0.986913 -0.161253 0.142374 0.989813 464.021 280.149)" fill="#F8D24E"/>
<ellipse cx="5.86756" cy="6.23532" rx="5.86756" ry="6.23532" transform="matrix(0.986913 -0.161253 0.142374 0.989813 476.349 269.712)" fill="#F8D24E"/>
</svg>
